<svg width="256" height="32" viewBox="0 0 1809 286" fill="none" xmlns="http://www.w3.org/2000/svg">
<path d="M0 32C0 14.3269 14.3269 0 32 0H254C271.673 0 286 14.3269 286 32V254C286 271.673 271.673 286 254 286H32C14.3269 286 0 271.673 0 254V32Z" fill="#931B20"/>
<path fill-rule="evenodd" clip-rule="evenodd" d="M45 32H102H218H242V56V104V128H218H126H102L69 128L69 168H218H242V192V256H218V192H69H45L45 128L45 104H69L102 104L102 56H45V32ZM126 104L218 104V56H126L126 104ZM210.242 250.353C208.524 251.34 206.42 252.199 203.929 252.929C201.439 253.659 198.669 254.024 195.62 254.024C191.97 254.024 188.621 253.402 185.572 252.156C182.523 250.911 179.882 249.129 177.649 246.81C175.459 244.491 173.741 241.678 172.496 238.372C171.294 235.065 170.692 231.329 170.692 227.164C170.692 223.042 171.294 219.327 172.496 216.021C173.698 212.714 175.373 209.901 177.52 207.583C179.71 205.221 182.308 203.417 185.314 202.172C188.363 200.884 191.691 200.24 195.298 200.24C197.875 200.24 200.322 200.54 202.641 201.141C205.003 201.742 206.871 202.387 208.245 203.074L207.859 211.061C206.356 210.331 204.659 209.708 202.77 209.193C200.88 208.678 198.712 208.42 196.264 208.42C193.945 208.42 191.798 208.806 189.823 209.579C187.891 210.352 186.194 211.533 184.734 213.122C183.274 214.668 182.136 216.622 181.32 218.984C180.505 221.302 180.097 224.029 180.097 227.164C180.097 229.955 180.526 232.51 181.385 234.829C182.244 237.105 183.403 239.059 184.863 240.691C186.323 242.323 188.019 243.589 189.952 244.491C191.884 245.393 193.945 245.844 196.135 245.844C198.454 245.844 200.623 245.565 202.641 245.006C204.659 244.405 206.377 243.654 207.794 242.752L210.242 250.353ZM160.81 201.528H151.406V252.736H160.81V201.528ZM112.176 209.257V252.736H121.58V209.257H139.88V201.592H93.812V209.257H112.176ZM69 202L94 252.5H73.0317L58.5159 223.178L69 202ZM53.754 232.797L63.5079 252.5H44L53.754 232.797Z" fill="white"/>
<rect x="147" y="68" width="49" height="24" fill="#F39800"/>
<path d="M388.399 230.332H383.82C383.549 229.015 383.075 227.858 382.398 226.86C381.733 225.863 380.921 225.026 379.96 224.349C379.012 223.66 377.96 223.143 376.803 222.798C375.646 222.453 374.439 222.281 373.183 222.281C370.894 222.281 368.819 222.859 366.96 224.017C365.114 225.174 363.643 226.879 362.547 229.132C361.464 231.385 360.922 234.148 360.922 237.423C360.922 240.698 361.464 243.461 362.547 245.714C363.643 247.967 365.114 249.672 366.96 250.829C368.819 251.986 370.894 252.565 373.183 252.565C374.439 252.565 375.646 252.393 376.803 252.048C377.96 251.703 379.012 251.192 379.96 250.515C380.921 249.826 381.733 248.983 382.398 247.985C383.075 246.976 383.549 245.819 383.82 244.514H388.399C388.055 246.447 387.427 248.176 386.516 249.703C385.605 251.229 384.472 252.528 383.118 253.599C381.764 254.658 380.244 255.464 378.557 256.018C376.883 256.572 375.092 256.849 373.183 256.849C369.958 256.849 367.09 256.061 364.578 254.485C362.067 252.91 360.091 250.669 358.651 247.764C357.21 244.859 356.49 241.412 356.49 237.423C356.49 233.434 357.21 229.987 358.651 227.082C360.091 224.177 362.067 221.936 364.578 220.36C367.09 218.785 369.958 217.997 373.183 217.997C375.092 217.997 376.883 218.274 378.557 218.828C380.244 219.382 381.764 220.194 383.118 221.265C384.472 222.324 385.605 223.617 386.516 225.143C387.427 226.657 388.055 228.387 388.399 230.332Z" fill="#333333" fill-opacity="0.5"/>
<path d="M399.567 239.27V256.332H395.209V218.514H399.567V232.4H399.936C400.601 230.935 401.598 229.772 402.927 228.91C404.269 228.036 406.054 227.599 408.282 227.599C410.215 227.599 411.908 227.987 413.361 228.762C414.813 229.526 415.94 230.701 416.74 232.289C417.552 233.865 417.959 235.872 417.959 238.309V256.332H413.601V238.605C413.601 236.352 413.016 234.61 411.846 233.379C410.689 232.136 409.083 231.514 407.027 231.514C405.599 231.514 404.318 231.815 403.186 232.419C402.066 233.022 401.179 233.902 400.527 235.059C399.887 236.217 399.567 237.62 399.567 239.27Z" fill="#333333" fill-opacity="0.5"/>
<path d="M437.454 256.923C434.893 256.923 432.647 256.314 430.714 255.095C428.794 253.876 427.292 252.171 426.208 249.98C425.137 247.788 424.602 245.228 424.602 242.298C424.602 239.343 425.137 236.764 426.208 234.561C427.292 232.357 428.794 230.646 430.714 229.427C432.647 228.208 434.893 227.599 437.454 227.599C440.015 227.599 442.255 228.208 444.176 229.427C446.108 230.646 447.61 232.357 448.681 234.561C449.765 236.764 450.306 239.343 450.306 242.298C450.306 245.228 449.765 247.788 448.681 249.98C447.61 252.171 446.108 253.876 444.176 255.095C442.255 256.314 440.015 256.923 437.454 256.923ZM437.454 253.008C439.399 253.008 440.999 252.51 442.255 251.512C443.511 250.515 444.44 249.204 445.044 247.579C445.647 245.954 445.948 244.194 445.948 242.298C445.948 240.402 445.647 238.636 445.044 236.998C444.44 235.361 443.511 234.038 442.255 233.028C440.999 232.019 439.399 231.514 437.454 231.514C435.509 231.514 433.909 232.019 432.653 233.028C431.397 234.038 430.468 235.361 429.865 236.998C429.261 238.636 428.96 240.402 428.96 242.298C428.96 244.194 429.261 245.954 429.865 247.579C430.468 249.204 431.397 250.515 432.653 251.512C433.909 252.51 435.509 253.008 437.454 253.008Z" fill="#333333" fill-opacity="0.5"/>
<path d="M461.317 239.27V256.332H456.959V227.968H461.169V232.4H461.538C462.203 230.96 463.212 229.803 464.567 228.929C465.921 228.042 467.669 227.599 469.811 227.599C471.731 227.599 473.412 227.993 474.852 228.781C476.292 229.556 477.413 230.738 478.213 232.326C479.013 233.902 479.413 235.896 479.413 238.309V256.332H475.055V238.605C475.055 236.377 474.477 234.641 473.319 233.397C472.162 232.142 470.574 231.514 468.555 231.514C467.164 231.514 465.921 231.815 464.825 232.419C463.742 233.022 462.886 233.902 462.258 235.059C461.631 236.217 461.317 237.62 461.317 239.27Z" fill="#333333" fill-opacity="0.5"/>
<path d="M498.825 267.559C496.72 267.559 494.911 267.288 493.396 266.747C491.882 266.217 490.62 265.516 489.611 264.642C488.614 263.78 487.82 262.857 487.229 261.872L490.7 259.434C491.094 259.951 491.593 260.542 492.196 261.207C492.799 261.884 493.624 262.469 494.671 262.961C495.729 263.466 497.114 263.718 498.825 263.718C501.115 263.718 503.005 263.164 504.495 262.056C505.984 260.949 506.729 259.213 506.729 256.849V251.088H506.36C506.039 251.605 505.584 252.245 504.993 253.008C504.414 253.759 503.577 254.43 502.482 255.021C501.398 255.6 499.933 255.889 498.087 255.889C495.797 255.889 493.741 255.347 491.919 254.264C490.11 253.181 488.675 251.605 487.617 249.537C486.57 247.468 486.047 244.957 486.047 242.002C486.047 239.097 486.558 236.567 487.58 234.413C488.602 232.246 490.023 230.572 491.845 229.39C493.667 228.196 495.772 227.599 498.161 227.599C500.007 227.599 501.472 227.907 502.556 228.522C503.651 229.126 504.488 229.815 505.067 230.591C505.658 231.354 506.113 231.982 506.433 232.474H506.877V227.968H511.087V257.145C511.087 259.582 510.533 261.564 509.425 263.091C508.329 264.629 506.852 265.756 504.993 266.47C503.146 267.196 501.091 267.559 498.825 267.559ZM498.678 251.974C500.426 251.974 501.903 251.574 503.11 250.774C504.316 249.974 505.233 248.823 505.861 247.321C506.489 245.819 506.803 244.021 506.803 241.929C506.803 239.885 506.495 238.082 505.879 236.518C505.264 234.955 504.353 233.73 503.146 232.843C501.94 231.957 500.45 231.514 498.678 231.514C496.831 231.514 495.292 231.982 494.061 232.917C492.843 233.853 491.925 235.109 491.31 236.684C490.707 238.26 490.405 240.008 490.405 241.929C490.405 243.898 490.713 245.64 491.328 247.154C491.956 248.656 492.879 249.838 494.098 250.7C495.329 251.549 496.856 251.974 498.678 251.974Z" fill="#333333" fill-opacity="0.5"/>
<path d="M538.416 266.968V251.974H538.047C537.727 252.491 537.271 253.144 536.681 253.931C536.09 254.707 535.246 255.403 534.151 256.018C533.055 256.621 531.596 256.923 529.774 256.923C527.411 256.923 525.324 256.326 523.514 255.132C521.705 253.925 520.289 252.226 519.267 250.035C518.245 247.832 517.735 245.228 517.735 242.224C517.735 239.245 518.245 236.66 519.267 234.468C520.289 232.277 521.711 230.584 523.533 229.39C525.355 228.196 527.46 227.599 529.848 227.599C531.695 227.599 533.154 227.907 534.225 228.522C535.308 229.126 536.133 229.815 536.699 230.591C537.278 231.354 537.727 231.982 538.047 232.474H538.564V227.968H542.774V266.968H538.416ZM530.365 253.008C532.113 253.008 533.591 252.553 534.797 251.642C536.003 250.718 536.921 249.444 537.548 247.819C538.176 246.182 538.49 244.292 538.49 242.15C538.49 240.033 538.182 238.18 537.567 236.592C536.951 234.992 536.04 233.748 534.834 232.862C533.628 231.963 532.138 231.514 530.365 231.514C528.519 231.514 526.98 231.988 525.749 232.936C524.53 233.871 523.613 235.145 522.997 236.758C522.394 238.359 522.093 240.156 522.093 242.15C522.093 244.169 522.4 246.003 523.016 247.653C523.644 249.29 524.567 250.595 525.786 251.568C527.017 252.528 528.543 253.008 530.365 253.008Z" fill="#333333" fill-opacity="0.5"/>
<path d="M550.752 256.332V227.968H555.11V256.332H550.752ZM552.968 223.241C552.118 223.241 551.386 222.952 550.77 222.373C550.167 221.795 549.865 221.099 549.865 220.287C549.865 219.474 550.167 218.779 550.77 218.2C551.386 217.621 552.118 217.332 552.968 217.332C553.817 217.332 554.543 217.621 555.146 218.2C555.762 218.779 556.07 219.474 556.07 220.287C556.07 221.099 555.762 221.795 555.146 222.373C554.543 222.952 553.817 223.241 552.968 223.241Z" fill="#333333" fill-opacity="0.5"/>
<path d="M567.449 239.27V256.332H563.091V227.968H567.302V232.4H567.671C568.336 230.96 569.345 229.803 570.699 228.929C572.054 228.042 573.802 227.599 575.944 227.599C577.864 227.599 579.545 227.993 580.985 228.781C582.425 229.556 583.546 230.738 584.346 232.326C585.146 233.902 585.546 235.896 585.546 238.309V256.332H581.188V238.605C581.188 236.377 580.609 234.641 579.452 233.397C578.295 232.142 576.707 231.514 574.688 231.514C573.297 231.514 572.054 231.815 570.958 232.419C569.875 233.022 569.019 233.902 568.391 235.059C567.763 236.217 567.449 237.62 567.449 239.27Z" fill="#333333" fill-opacity="0.5"/>
<path d="M604.958 267.559C602.853 267.559 601.044 267.288 599.529 266.747C598.015 266.217 596.753 265.516 595.744 264.642C594.747 263.78 593.953 262.857 593.362 261.872L596.833 259.434C597.227 259.951 597.726 260.542 598.329 261.207C598.932 261.884 599.757 262.469 600.803 262.961C601.862 263.466 603.247 263.718 604.958 263.718C607.248 263.718 609.138 263.164 610.627 262.056C612.117 260.949 612.862 259.213 612.862 256.849V251.088H612.492C612.172 251.605 611.717 252.245 611.126 253.008C610.547 253.759 609.71 254.43 608.615 255.021C607.531 255.6 606.066 255.889 604.22 255.889C601.93 255.889 599.874 255.347 598.052 254.264C596.242 253.181 594.808 251.605 593.749 249.537C592.703 247.468 592.18 244.957 592.18 242.002C592.18 239.097 592.691 236.567 593.713 234.413C594.734 232.246 596.156 230.572 597.978 229.39C599.8 228.196 601.905 227.599 604.294 227.599C606.14 227.599 607.605 227.907 608.688 228.522C609.784 229.126 610.621 229.815 611.2 230.591C611.791 231.354 612.246 231.982 612.566 232.474H613.009V227.968H617.22V257.145C617.22 259.582 616.666 261.564 615.558 263.091C614.462 264.629 612.985 265.756 611.126 266.47C609.279 267.196 607.223 267.559 604.958 267.559ZM604.811 251.974C606.559 251.974 608.036 251.574 609.242 250.774C610.449 249.974 611.366 248.823 611.994 247.321C612.622 245.819 612.936 244.021 612.936 241.929C612.936 239.885 612.628 238.082 612.012 236.518C611.397 234.955 610.486 233.73 609.279 232.843C608.073 231.957 606.583 231.514 604.811 231.514C602.964 231.514 601.425 231.982 600.194 232.917C598.975 233.853 598.058 235.109 597.443 236.684C596.839 238.26 596.538 240.008 596.538 241.929C596.538 243.898 596.846 245.64 597.461 247.154C598.089 248.656 599.012 249.838 600.231 250.7C601.462 251.549 602.989 251.974 604.811 251.974Z" fill="#333333" fill-opacity="0.5"/>
<path d="M640.413 256.332V218.514H653.634C656.269 218.514 658.442 218.969 660.153 219.88C661.864 220.779 663.138 221.992 663.975 223.518C664.812 225.032 665.231 226.713 665.231 228.559C665.231 230.184 664.942 231.526 664.363 232.585C663.797 233.644 663.046 234.481 662.11 235.096C661.187 235.712 660.184 236.167 659.1 236.463V236.832C660.258 236.906 661.421 237.312 662.59 238.051C663.76 238.789 664.739 239.848 665.526 241.227C666.314 242.606 666.708 244.292 666.708 246.287C666.708 248.182 666.277 249.887 665.416 251.402C664.554 252.916 663.194 254.116 661.335 255.002C659.476 255.889 657.057 256.332 654.078 256.332H640.413ZM644.992 252.27H654.078C657.069 252.27 659.193 251.691 660.448 250.534C661.716 249.364 662.35 247.949 662.35 246.287C662.35 245.006 662.024 243.824 661.372 242.741C660.719 241.645 659.79 240.771 658.583 240.119C657.377 239.454 655.949 239.122 654.299 239.122H644.992V252.27ZM644.992 235.133H653.487C654.865 235.133 656.109 234.862 657.217 234.321C658.337 233.779 659.223 233.016 659.876 232.031C660.541 231.046 660.873 229.889 660.873 228.559C660.873 226.897 660.294 225.488 659.137 224.331C657.98 223.161 656.146 222.576 653.634 222.576H644.992V235.133Z" fill="#333333" fill-opacity="0.5"/>
<path d="M681.989 256.997C680.191 256.997 678.56 256.658 677.095 255.981C675.63 255.292 674.467 254.301 673.605 253.008C672.744 251.703 672.313 250.127 672.313 248.281C672.313 246.656 672.633 245.339 673.273 244.329C673.913 243.307 674.769 242.507 675.84 241.929C676.911 241.35 678.093 240.919 679.385 240.636C680.69 240.341 682.001 240.107 683.318 239.934C685.042 239.713 686.439 239.547 687.51 239.436C688.593 239.313 689.381 239.109 689.874 238.826C690.379 238.543 690.631 238.051 690.631 237.349V237.201C690.631 235.379 690.132 233.964 689.135 232.954C688.15 231.945 686.655 231.44 684.648 231.44C682.567 231.44 680.936 231.895 679.754 232.806C678.573 233.717 677.742 234.69 677.262 235.724L673.125 234.247C673.864 232.523 674.849 231.181 676.08 230.221C677.323 229.249 678.677 228.572 680.142 228.19C681.62 227.796 683.072 227.599 684.5 227.599C685.411 227.599 686.458 227.71 687.639 227.931C688.834 228.141 689.985 228.578 691.093 229.243C692.213 229.907 693.142 230.911 693.881 232.252C694.619 233.594 694.989 235.392 694.989 237.645V256.332H690.631V252.491H690.409C690.114 253.107 689.621 253.765 688.932 254.467C688.243 255.169 687.325 255.766 686.181 256.258C685.036 256.751 683.638 256.997 681.989 256.997ZM682.654 253.082C684.377 253.082 685.83 252.743 687.012 252.066C688.206 251.389 689.104 250.515 689.708 249.444C690.323 248.373 690.631 247.247 690.631 246.065V242.076C690.446 242.298 690.04 242.501 689.412 242.686C688.797 242.858 688.083 243.012 687.27 243.147C686.47 243.27 685.688 243.381 684.925 243.48C684.174 243.566 683.565 243.64 683.097 243.701C681.964 243.849 680.906 244.089 679.921 244.422C678.948 244.742 678.16 245.228 677.557 245.88C676.966 246.52 676.671 247.395 676.671 248.502C676.671 250.017 677.231 251.162 678.351 251.937C679.484 252.7 680.918 253.082 682.654 253.082Z" fill="#333333" fill-opacity="0.5"/>
<path d="M707.301 239.27V256.332H702.943V227.968H707.153V232.4H707.523C708.187 230.96 709.197 229.803 710.551 228.929C711.905 228.042 713.653 227.599 715.795 227.599C717.716 227.599 719.396 227.993 720.836 228.781C722.277 229.556 723.397 230.738 724.197 232.326C724.997 233.902 725.398 235.896 725.398 238.309V256.332H721.04V238.605C721.04 236.377 720.461 234.641 719.304 233.397C718.147 232.142 716.559 231.514 714.54 231.514C713.149 231.514 711.905 231.815 710.809 232.419C709.726 233.022 708.871 233.902 708.243 235.059C707.615 236.217 707.301 237.62 707.301 239.27Z" fill="#333333" fill-opacity="0.5"/>
<path d="M741.708 256.997C739.91 256.997 738.279 256.658 736.814 255.981C735.349 255.292 734.186 254.301 733.324 253.008C732.462 251.703 732.031 250.127 732.031 248.281C732.031 246.656 732.352 245.339 732.992 244.329C733.632 243.307 734.487 242.507 735.558 241.929C736.629 241.35 737.811 240.919 739.104 240.636C740.409 240.341 741.72 240.107 743.037 239.934C744.761 239.713 746.158 239.547 747.229 239.436C748.312 239.313 749.1 239.109 749.593 238.826C750.097 238.543 750.35 238.051 750.35 237.349V237.201C750.35 235.379 749.851 233.964 748.854 232.954C747.869 231.945 746.373 231.44 744.367 231.44C742.286 231.44 740.655 231.895 739.473 232.806C738.291 233.717 737.46 234.69 736.98 235.724L732.844 234.247C733.583 232.523 734.567 231.181 735.798 230.221C737.042 229.249 738.396 228.572 739.861 228.19C741.338 227.796 742.791 227.599 744.219 227.599C745.13 227.599 746.176 227.71 747.358 227.931C748.552 228.141 749.703 228.578 750.811 229.243C751.932 229.907 752.861 230.911 753.6 232.252C754.338 233.594 754.708 235.392 754.708 237.645V256.332H750.35V252.491H750.128C749.833 253.107 749.34 253.765 748.651 254.467C747.961 255.169 747.044 255.766 745.899 256.258C744.754 256.751 743.357 256.997 741.708 256.997ZM742.372 253.082C744.096 253.082 745.548 252.743 746.73 252.066C747.924 251.389 748.823 250.515 749.426 249.444C750.042 248.373 750.35 247.247 750.35 246.065V242.076C750.165 242.298 749.759 242.501 749.131 242.686C748.515 242.858 747.801 243.012 746.989 243.147C746.189 243.27 745.407 243.381 744.644 243.48C743.893 243.566 743.283 243.64 742.816 243.701C741.683 243.849 740.624 244.089 739.639 244.422C738.667 244.742 737.879 245.228 737.276 245.88C736.685 246.52 736.389 247.395 736.389 248.502C736.389 250.017 736.95 251.162 738.07 251.937C739.202 252.7 740.637 253.082 742.372 253.082Z" fill="#333333" fill-opacity="0.5"/>
<path d="M767.02 239.27V256.332H762.662V227.968H766.872V232.4H767.241C767.906 230.96 768.916 229.803 770.27 228.929C771.624 228.042 773.372 227.599 775.514 227.599C777.434 227.599 779.115 227.993 780.555 228.781C781.996 229.556 783.116 230.738 783.916 232.326C784.716 233.902 785.116 235.896 785.116 238.309V256.332H780.758V238.605C780.758 236.377 780.18 234.641 779.023 233.397C777.865 232.142 776.277 231.514 774.258 231.514C772.867 231.514 771.624 231.815 770.528 232.419C769.445 233.022 768.589 233.902 767.961 235.059C767.334 236.217 767.02 237.62 767.02 239.27Z" fill="#333333" fill-opacity="0.5"/>
<path d="M809.847 256.332H805.046L818.932 218.514H823.659L837.546 256.332H832.745L821.443 224.497H821.148L809.847 256.332ZM811.62 241.559H830.972V245.622H811.62V241.559Z" fill="#333333" fill-opacity="0.5"/>
<path d="M853.556 256.923C851.192 256.923 849.105 256.326 847.296 255.132C845.486 253.925 844.07 252.226 843.048 250.035C842.027 247.832 841.516 245.228 841.516 242.224C841.516 239.245 842.027 236.66 843.048 234.468C844.07 232.277 845.492 230.584 847.314 229.39C849.136 228.196 851.241 227.599 853.629 227.599C855.476 227.599 856.935 227.907 858.006 228.522C859.089 229.126 859.914 229.815 860.48 230.591C861.059 231.354 861.508 231.982 861.828 232.474H862.198V218.514H866.556V256.332H862.345V251.974H861.828C861.508 252.491 861.053 253.144 860.462 253.931C859.871 254.707 859.028 255.403 857.932 256.018C856.836 256.621 855.378 256.923 853.556 256.923ZM854.146 253.008C855.895 253.008 857.372 252.553 858.578 251.642C859.785 250.718 860.702 249.444 861.33 247.819C861.958 246.182 862.271 244.292 862.271 242.15C862.271 240.033 861.964 238.18 861.348 236.592C860.733 234.992 859.822 233.748 858.615 232.862C857.409 231.963 855.919 231.514 854.146 231.514C852.3 231.514 850.761 231.988 849.53 232.936C848.311 233.871 847.394 235.145 846.779 236.758C846.175 238.359 845.874 240.156 845.874 242.15C845.874 244.169 846.182 246.003 846.797 247.653C847.425 249.29 848.348 250.595 849.567 251.568C850.798 252.528 852.325 253.008 854.146 253.008Z" fill="#333333" fill-opacity="0.5"/>
<path d="M898.335 227.968L887.847 256.332H883.415L872.926 227.968H877.654L885.483 250.571H885.779L893.608 227.968H898.335Z" fill="#333333" fill-opacity="0.5"/>
<path d="M911.571 256.997C909.773 256.997 908.142 256.658 906.677 255.981C905.212 255.292 904.049 254.301 903.187 253.008C902.326 251.703 901.895 250.127 901.895 248.281C901.895 246.656 902.215 245.339 902.855 244.329C903.495 243.307 904.351 242.507 905.422 241.929C906.493 241.35 907.674 240.919 908.967 240.636C910.272 240.341 911.583 240.107 912.9 239.934C914.624 239.713 916.021 239.547 917.092 239.436C918.175 239.313 918.963 239.109 919.456 238.826C919.96 238.543 920.213 238.051 920.213 237.349V237.201C920.213 235.379 919.714 233.964 918.717 232.954C917.732 231.945 916.237 231.44 914.23 231.44C912.149 231.44 910.518 231.895 909.336 232.806C908.155 233.717 907.324 234.69 906.844 235.724L902.707 234.247C903.446 232.523 904.431 231.181 905.662 230.221C906.905 229.249 908.259 228.572 909.724 228.19C911.202 227.796 912.654 227.599 914.082 227.599C914.993 227.599 916.04 227.71 917.221 227.931C918.416 228.141 919.567 228.578 920.674 229.243C921.795 229.907 922.724 230.911 923.463 232.252C924.202 233.594 924.571 235.392 924.571 237.645V256.332H920.213V252.491H919.991C919.696 253.107 919.203 253.765 918.514 254.467C917.825 255.169 916.907 255.766 915.763 256.258C914.618 256.751 913.22 256.997 911.571 256.997ZM912.236 253.082C913.959 253.082 915.412 252.743 916.594 252.066C917.788 251.389 918.686 250.515 919.29 249.444C919.905 248.373 920.213 247.247 920.213 246.065V242.076C920.028 242.298 919.622 242.501 918.994 242.686C918.379 242.858 917.665 243.012 916.852 243.147C916.052 243.27 915.27 243.381 914.507 243.48C913.756 243.566 913.147 243.64 912.679 243.701C911.546 243.849 910.487 244.089 909.503 244.422C908.53 244.742 907.742 245.228 907.139 245.88C906.548 246.52 906.253 247.395 906.253 248.502C906.253 250.017 906.813 251.162 907.933 251.937C909.066 252.7 910.5 253.082 912.236 253.082Z" fill="#333333" fill-opacity="0.5"/>
<path d="M936.883 239.27V256.332H932.525V227.968H936.735V232.4H937.105C937.769 230.96 938.779 229.803 940.133 228.929C941.487 228.042 943.235 227.599 945.377 227.599C947.298 227.599 948.978 227.993 950.418 228.781C951.859 229.556 952.979 230.738 953.779 232.326C954.579 233.902 954.98 235.896 954.98 238.309V256.332H950.622V238.605C950.622 236.377 950.043 234.641 948.886 233.397C947.729 232.142 946.141 231.514 944.122 231.514C942.73 231.514 941.487 231.815 940.391 232.419C939.308 233.022 938.453 233.902 937.825 235.059C937.197 236.217 936.883 237.62 936.883 239.27Z" fill="#333333" fill-opacity="0.5"/>
<path d="M974.466 256.923C971.807 256.923 969.517 256.295 967.596 255.039C965.676 253.784 964.199 252.054 963.165 249.851C962.13 247.647 961.613 245.129 961.613 242.298C961.613 239.417 962.143 236.875 963.201 234.672C964.272 232.456 965.762 230.726 967.67 229.483C969.591 228.227 971.831 227.599 974.392 227.599C976.386 227.599 978.183 227.968 979.784 228.707C981.384 229.446 982.695 230.48 983.717 231.809C984.739 233.139 985.373 234.69 985.619 236.463H981.261C980.929 235.17 980.19 234.025 979.045 233.028C977.913 232.019 976.386 231.514 974.466 231.514C972.767 231.514 971.277 231.957 969.997 232.843C968.729 233.717 967.738 234.955 967.024 236.555C966.322 238.143 965.971 240.008 965.971 242.15C965.971 244.342 966.316 246.25 967.005 247.875C967.707 249.5 968.692 250.761 969.96 251.66C971.24 252.559 972.742 253.008 974.466 253.008C975.598 253.008 976.626 252.811 977.549 252.417C978.473 252.023 979.255 251.457 979.895 250.718C980.535 249.98 980.99 249.093 981.261 248.059H985.619C985.373 249.734 984.764 251.242 983.791 252.583C982.831 253.913 981.557 254.972 979.969 255.76C978.393 256.535 976.559 256.923 974.466 256.923Z" fill="#333333" fill-opacity="0.5"/>
<path d="M1003.88 256.923C1001.15 256.923 998.791 256.32 996.809 255.113C994.84 253.895 993.319 252.196 992.248 250.017C991.19 247.825 990.66 245.277 990.66 242.372C990.66 239.467 991.19 236.906 992.248 234.69C993.319 232.462 994.809 230.726 996.717 229.483C998.638 228.227 1000.88 227.599 1003.44 227.599C1004.92 227.599 1006.37 227.845 1007.82 228.338C1009.26 228.83 1010.57 229.63 1011.75 230.738C1012.93 231.834 1013.87 233.287 1014.57 235.096C1015.28 236.906 1015.63 239.134 1015.63 241.781V243.627H993.763V239.86H1011.19C1011.19 238.26 1010.87 236.832 1010.23 235.576C1009.61 234.321 1008.71 233.33 1007.54 232.603C1006.38 231.877 1005.01 231.514 1003.44 231.514C1001.7 231.514 1000.2 231.945 998.933 232.806C997.677 233.656 996.711 234.764 996.034 236.13C995.357 237.497 995.018 238.962 995.018 240.525V243.037C995.018 245.179 995.388 246.994 996.126 248.484C996.877 249.961 997.917 251.088 999.247 251.863C1000.58 252.627 1002.12 253.008 1003.88 253.008C1005.03 253.008 1006.06 252.848 1006.98 252.528C1007.92 252.196 1008.73 251.703 1009.4 251.051C1010.08 250.386 1010.6 249.561 1010.97 248.576L1015.18 249.758C1014.74 251.186 1014 252.442 1012.95 253.525C1011.9 254.596 1010.61 255.433 1009.07 256.037C1007.53 256.627 1005.8 256.923 1003.88 256.923Z" fill="#333333" fill-opacity="0.5"/>
<path d="M1032.97 256.923C1030.6 256.923 1028.52 256.326 1026.71 255.132C1024.9 253.925 1023.48 252.226 1022.46 250.035C1021.44 247.832 1020.93 245.228 1020.93 242.224C1020.93 239.245 1021.44 236.66 1022.46 234.468C1023.48 232.277 1024.9 230.584 1026.72 229.39C1028.55 228.196 1030.65 227.599 1033.04 227.599C1034.89 227.599 1036.34 227.907 1037.42 228.522C1038.5 229.126 1039.32 229.815 1039.89 230.591C1040.47 231.354 1040.92 231.982 1041.24 232.474H1041.61V218.514H1045.97V256.332H1041.76V251.974H1041.24C1040.92 252.491 1040.46 253.144 1039.87 253.931C1039.28 254.707 1038.44 255.403 1037.34 256.018C1036.25 256.621 1034.79 256.923 1032.97 256.923ZM1033.56 253.008C1035.3 253.008 1036.78 252.553 1037.99 251.642C1039.19 250.718 1040.11 249.444 1040.74 247.819C1041.37 246.182 1041.68 244.292 1041.68 242.15C1041.68 240.033 1041.37 238.18 1040.76 236.592C1040.14 234.992 1039.23 233.748 1038.03 232.862C1036.82 231.963 1035.33 231.514 1033.56 231.514C1031.71 231.514 1030.17 231.988 1028.94 232.936C1027.72 233.871 1026.8 235.145 1026.19 236.758C1025.59 238.359 1025.28 240.156 1025.28 242.15C1025.28 244.169 1025.59 246.003 1026.21 247.653C1026.84 249.29 1027.76 250.595 1028.98 251.568C1030.21 252.528 1031.73 253.008 1033.56 253.008Z" fill="#333333" fill-opacity="0.5"/>
<path d="M1067.7 222.576V218.514H1096.06V222.576H1084.17V256.332H1079.59V222.576H1067.7Z" fill="#333333" fill-opacity="0.5"/>
<path d="M1110.32 256.923C1107.59 256.923 1105.23 256.32 1103.25 255.113C1101.28 253.895 1099.76 252.196 1098.69 250.017C1097.63 247.825 1097.1 245.277 1097.1 242.372C1097.1 239.467 1097.63 236.906 1098.69 234.69C1099.76 232.462 1101.25 230.726 1103.15 229.483C1105.08 228.227 1107.32 227.599 1109.88 227.599C1111.35 227.599 1112.81 227.845 1114.25 228.338C1115.69 228.83 1117 229.63 1118.19 230.738C1119.37 231.834 1120.31 233.287 1121.01 235.096C1121.71 236.906 1122.06 239.134 1122.06 241.781V243.627H1100.2V239.86H1117.63C1117.63 238.26 1117.31 236.832 1116.67 235.576C1116.04 234.321 1115.15 233.33 1113.98 232.603C1112.82 231.877 1111.45 231.514 1109.88 231.514C1108.14 231.514 1106.64 231.945 1105.37 232.806C1104.11 233.656 1103.15 234.764 1102.47 236.13C1101.79 237.497 1101.46 238.962 1101.46 240.525V243.037C1101.46 245.179 1101.83 246.994 1102.56 248.484C1103.31 249.961 1104.35 251.088 1105.68 251.863C1107.01 252.627 1108.56 253.008 1110.32 253.008C1111.46 253.008 1112.5 252.848 1113.42 252.528C1114.36 252.196 1115.16 251.703 1115.84 251.051C1116.52 250.386 1117.04 249.561 1117.41 248.576L1121.62 249.758C1121.18 251.186 1120.43 252.442 1119.39 253.525C1118.34 254.596 1117.05 255.433 1115.51 256.037C1113.97 256.627 1112.24 256.923 1110.32 256.923Z" fill="#333333" fill-opacity="0.5"/>
<path d="M1140.22 256.923C1137.56 256.923 1135.27 256.295 1133.35 255.039C1131.43 253.784 1129.95 252.054 1128.91 249.851C1127.88 247.647 1127.36 245.129 1127.36 242.298C1127.36 239.417 1127.89 236.875 1128.95 234.672C1130.02 232.456 1131.51 230.726 1133.42 229.483C1135.34 228.227 1137.58 227.599 1140.14 227.599C1142.14 227.599 1143.93 227.968 1145.53 228.707C1147.13 229.446 1148.45 230.48 1149.47 231.809C1150.49 233.139 1151.12 234.69 1151.37 236.463H1147.01C1146.68 235.17 1145.94 234.025 1144.8 233.028C1143.66 232.019 1142.14 231.514 1140.22 231.514C1138.52 231.514 1137.03 231.957 1135.75 232.843C1134.48 233.717 1133.49 234.955 1132.77 236.555C1132.07 238.143 1131.72 240.008 1131.72 242.15C1131.72 244.342 1132.07 246.25 1132.76 247.875C1133.46 249.5 1134.44 250.761 1135.71 251.66C1136.99 252.559 1138.49 253.008 1140.22 253.008C1141.35 253.008 1142.38 252.811 1143.3 252.417C1144.22 252.023 1145 251.457 1145.64 250.718C1146.28 249.98 1146.74 249.093 1147.01 248.059H1151.37C1151.12 249.734 1150.51 251.242 1149.54 252.583C1148.58 253.913 1147.31 254.972 1145.72 255.76C1144.14 256.535 1142.31 256.923 1140.22 256.923Z" fill="#333333" fill-opacity="0.5"/>
<path d="M1162.1 239.27V256.332H1157.74V218.514H1162.1V232.4H1162.47C1163.13 230.935 1164.13 229.772 1165.46 228.91C1166.8 228.036 1168.59 227.599 1170.81 227.599C1172.75 227.599 1174.44 227.987 1175.89 228.762C1177.34 229.526 1178.47 230.701 1179.27 232.289C1180.08 233.865 1180.49 235.872 1180.49 238.309V256.332H1176.13V238.605C1176.13 236.352 1175.55 234.61 1174.38 233.379C1173.22 232.136 1171.61 231.514 1169.56 231.514C1168.13 231.514 1166.85 231.815 1165.72 232.419C1164.6 233.022 1163.71 233.902 1163.06 235.059C1162.42 236.217 1162.1 237.62 1162.1 239.27Z" fill="#333333" fill-opacity="0.5"/>
<path d="M1192.82 239.27V256.332H1188.46V227.968H1192.67V232.4H1193.04C1193.71 230.96 1194.72 229.803 1196.07 228.929C1197.42 228.042 1199.17 227.599 1201.31 227.599C1203.24 227.599 1204.92 227.993 1206.36 228.781C1207.8 229.556 1208.92 230.738 1209.72 232.326C1210.52 233.902 1210.92 235.896 1210.92 238.309V256.332H1206.56V238.605C1206.56 236.377 1205.98 234.641 1204.82 233.397C1203.67 232.142 1202.08 231.514 1200.06 231.514C1198.67 231.514 1197.42 231.815 1196.33 232.419C1195.25 233.022 1194.39 233.902 1193.76 235.059C1193.13 236.217 1192.82 237.62 1192.82 239.27Z" fill="#333333" fill-opacity="0.5"/>
<path d="M1230.4 256.923C1227.84 256.923 1225.6 256.314 1223.66 255.095C1221.74 253.876 1220.24 252.171 1219.16 249.98C1218.09 247.788 1217.55 245.228 1217.55 242.298C1217.55 239.343 1218.09 236.764 1219.16 234.561C1220.24 232.357 1221.74 230.646 1223.66 229.427C1225.6 228.208 1227.84 227.599 1230.4 227.599C1232.96 227.599 1235.2 228.208 1237.12 229.427C1239.06 230.646 1240.56 232.357 1241.63 234.561C1242.71 236.764 1243.26 239.343 1243.26 242.298C1243.26 245.228 1242.71 247.788 1241.63 249.98C1240.56 252.171 1239.06 253.876 1237.12 255.095C1235.2 256.314 1232.96 256.923 1230.4 256.923ZM1230.4 253.008C1232.35 253.008 1233.95 252.51 1235.2 251.512C1236.46 250.515 1237.39 249.204 1237.99 247.579C1238.6 245.954 1238.9 244.194 1238.9 242.298C1238.9 240.402 1238.6 238.636 1237.99 236.998C1237.39 235.361 1236.46 234.038 1235.2 233.028C1233.95 232.019 1232.35 231.514 1230.4 231.514C1228.46 231.514 1226.86 232.019 1225.6 233.028C1224.35 234.038 1223.42 235.361 1222.81 236.998C1222.21 238.636 1221.91 240.402 1221.91 242.298C1221.91 244.194 1222.21 245.954 1222.81 247.579C1223.42 249.204 1224.35 250.515 1225.6 251.512C1226.86 252.51 1228.46 253.008 1230.4 253.008Z" fill="#333333" fill-opacity="0.5"/>
<path d="M1254.27 218.514V256.332H1249.91V218.514H1254.27Z" fill="#333333" fill-opacity="0.5"/>
<path d="M1273.77 256.923C1271.21 256.923 1268.96 256.314 1267.03 255.095C1265.11 253.876 1263.61 252.171 1262.52 249.98C1261.45 247.788 1260.92 245.228 1260.92 242.298C1260.92 239.343 1261.45 236.764 1262.52 234.561C1263.61 232.357 1265.11 230.646 1267.03 229.427C1268.96 228.208 1271.21 227.599 1273.77 227.599C1276.33 227.599 1278.57 228.208 1280.49 229.427C1282.42 230.646 1283.93 232.357 1285 234.561C1286.08 236.764 1286.62 239.343 1286.62 242.298C1286.62 245.228 1286.08 247.788 1285 249.98C1283.93 252.171 1282.42 253.876 1280.49 255.095C1278.57 256.314 1276.33 256.923 1273.77 256.923ZM1273.77 253.008C1275.72 253.008 1277.32 252.51 1278.57 251.512C1279.83 250.515 1280.76 249.204 1281.36 247.579C1281.96 245.954 1282.26 244.194 1282.26 242.298C1282.26 240.402 1281.96 238.636 1281.36 236.998C1280.76 235.361 1279.83 234.038 1278.57 233.028C1277.32 232.019 1275.72 231.514 1273.77 231.514C1271.83 231.514 1270.22 232.019 1268.97 233.028C1267.71 234.038 1266.78 235.361 1266.18 236.998C1265.58 238.636 1265.28 240.402 1265.28 242.298C1265.28 244.194 1265.58 245.954 1266.18 247.579C1266.78 249.204 1267.71 250.515 1268.97 251.512C1270.22 252.51 1271.83 253.008 1273.77 253.008Z" fill="#333333" fill-opacity="0.5"/>
<path d="M1304.72 267.559C1302.62 267.559 1300.81 267.288 1299.29 266.747C1297.78 266.217 1296.52 265.516 1295.51 264.642C1294.51 263.78 1293.72 262.857 1293.13 261.872L1296.6 259.434C1296.99 259.951 1297.49 260.542 1298.09 261.207C1298.7 261.884 1299.52 262.469 1300.57 262.961C1301.63 263.466 1303.01 263.718 1304.72 263.718C1307.01 263.718 1308.9 263.164 1310.39 262.056C1311.88 260.949 1312.63 259.213 1312.63 256.849V251.088H1312.26C1311.94 251.605 1311.48 252.245 1310.89 253.008C1310.31 253.759 1309.48 254.43 1308.38 255.021C1307.3 255.6 1305.83 255.889 1303.99 255.889C1301.7 255.889 1299.64 255.347 1297.82 254.264C1296.01 253.181 1294.57 251.605 1293.52 249.537C1292.47 247.468 1291.95 244.957 1291.95 242.002C1291.95 239.097 1292.46 236.567 1293.48 234.413C1294.5 232.246 1295.92 230.572 1297.74 229.39C1299.57 228.196 1301.67 227.599 1304.06 227.599C1305.91 227.599 1307.37 227.907 1308.45 228.522C1309.55 229.126 1310.39 229.815 1310.97 230.591C1311.56 231.354 1312.01 231.982 1312.33 232.474H1312.78V227.968H1316.99V257.145C1316.99 259.582 1316.43 261.564 1315.32 263.091C1314.23 264.629 1312.75 265.756 1310.89 266.47C1309.04 267.196 1306.99 267.559 1304.72 267.559ZM1304.58 251.974C1306.32 251.974 1307.8 251.574 1309.01 250.774C1310.21 249.974 1311.13 248.823 1311.76 247.321C1312.39 245.819 1312.7 244.021 1312.7 241.929C1312.7 239.885 1312.39 238.082 1311.78 236.518C1311.16 234.955 1310.25 233.73 1309.04 232.843C1307.84 231.957 1306.35 231.514 1304.58 231.514C1302.73 231.514 1301.19 231.982 1299.96 232.917C1298.74 233.853 1297.82 235.109 1297.21 236.684C1296.61 238.26 1296.3 240.008 1296.3 241.929C1296.3 243.898 1296.61 245.64 1297.23 247.154C1297.85 248.656 1298.78 249.838 1300 250.7C1301.23 251.549 1302.75 251.974 1304.58 251.974Z" fill="#333333" fill-opacity="0.5"/>
<path d="M1327.77 266.968C1327.03 266.968 1326.37 266.907 1325.79 266.784C1325.21 266.673 1324.81 266.562 1324.59 266.451L1325.7 262.61C1326.76 262.881 1327.7 262.98 1328.51 262.906C1329.32 262.832 1330.04 262.469 1330.67 261.816C1331.31 261.176 1331.89 260.136 1332.42 258.696L1333.24 256.48L1322.75 227.968H1327.47L1335.3 250.571H1335.6L1343.43 227.968H1348.16L1336.12 260.468C1335.57 261.933 1334.9 263.146 1334.1 264.106C1333.3 265.079 1332.37 265.799 1331.31 266.267C1330.27 266.734 1329.09 266.968 1327.77 266.968Z" fill="#333333" fill-opacity="0.5"/>
<path d="M1373.7 218.514V256.332H1369.12V218.514H1373.7Z" fill="#333333" fill-opacity="0.5"/>
<path d="M1386.65 239.27V256.332H1382.29V227.968H1386.5V232.4H1386.87C1387.54 230.96 1388.55 229.803 1389.9 228.929C1391.26 228.042 1393 227.599 1395.15 227.599C1397.07 227.599 1398.75 227.993 1400.19 228.781C1401.63 229.556 1402.75 230.738 1403.55 232.326C1404.35 233.902 1404.75 235.896 1404.75 238.309V256.332H1400.39V238.605C1400.39 236.377 1399.81 234.641 1398.66 233.397C1397.5 232.142 1395.91 231.514 1393.89 231.514C1392.5 231.514 1391.26 231.815 1390.16 232.419C1389.08 233.022 1388.22 233.902 1387.59 235.059C1386.97 236.217 1386.65 237.62 1386.65 239.27Z" fill="#333333" fill-opacity="0.5"/>
<path d="M1417.07 239.27V256.332H1412.71V227.968H1416.92V232.4H1417.29C1417.96 230.96 1418.97 229.803 1420.32 228.929C1421.67 228.042 1423.42 227.599 1425.56 227.599C1427.49 227.599 1429.17 227.993 1430.61 228.781C1432.05 229.556 1433.17 230.738 1433.97 232.326C1434.77 233.902 1435.17 235.896 1435.17 238.309V256.332H1430.81V238.605C1430.81 236.377 1430.23 234.641 1429.07 233.397C1427.92 232.142 1426.33 231.514 1424.31 231.514C1422.92 231.514 1421.67 231.815 1420.58 232.419C1419.5 233.022 1418.64 233.902 1418.01 235.059C1417.38 236.217 1417.07 237.62 1417.07 239.27Z" fill="#333333" fill-opacity="0.5"/>
<path d="M1454.65 256.923C1452.09 256.923 1449.85 256.314 1447.91 255.095C1445.99 253.876 1444.49 252.171 1443.41 249.98C1442.34 247.788 1441.8 245.228 1441.8 242.298C1441.8 239.343 1442.34 236.764 1443.41 234.561C1444.49 232.357 1445.99 230.646 1447.91 229.427C1449.85 228.208 1452.09 227.599 1454.65 227.599C1457.21 227.599 1459.45 228.208 1461.37 229.427C1463.31 230.646 1464.81 232.357 1465.88 234.561C1466.96 236.764 1467.51 239.343 1467.51 242.298C1467.51 245.228 1466.96 247.788 1465.88 249.98C1464.81 252.171 1463.31 253.876 1461.37 255.095C1459.45 256.314 1457.21 256.923 1454.65 256.923ZM1454.65 253.008C1456.6 253.008 1458.2 252.51 1459.45 251.512C1460.71 250.515 1461.64 249.204 1462.24 247.579C1462.85 245.954 1463.15 244.194 1463.15 242.298C1463.15 240.402 1462.85 238.636 1462.24 236.998C1461.64 235.361 1460.71 234.038 1459.45 233.028C1458.2 232.019 1456.6 231.514 1454.65 231.514C1452.71 231.514 1451.11 232.019 1449.85 233.028C1448.6 234.038 1447.67 235.361 1447.06 236.998C1446.46 238.636 1446.16 240.402 1446.16 242.298C1446.16 244.194 1446.46 245.954 1447.06 247.579C1447.67 249.204 1448.6 250.515 1449.85 251.512C1451.11 252.51 1452.71 253.008 1454.65 253.008Z" fill="#333333" fill-opacity="0.5"/>
<path d="M1496.34 227.968L1485.85 256.332H1481.42L1470.93 227.968H1475.65L1483.48 250.571H1483.78L1491.61 227.968H1496.34Z" fill="#333333" fill-opacity="0.5"/>
<path d="M1509.57 256.997C1507.77 256.997 1506.14 256.658 1504.68 255.981C1503.21 255.292 1502.05 254.301 1501.19 253.008C1500.33 251.703 1499.89 250.127 1499.89 248.281C1499.89 246.656 1500.21 245.339 1500.85 244.329C1501.5 243.307 1502.35 242.507 1503.42 241.929C1504.49 241.35 1505.67 240.919 1506.97 240.636C1508.27 240.341 1509.58 240.107 1510.9 239.934C1512.62 239.713 1514.02 239.547 1515.09 239.436C1516.18 239.313 1516.96 239.109 1517.46 238.826C1517.96 238.543 1518.21 238.051 1518.21 237.349V237.201C1518.21 235.379 1517.71 233.964 1516.72 232.954C1515.73 231.945 1514.24 231.44 1512.23 231.44C1510.15 231.44 1508.52 231.895 1507.34 232.806C1506.15 233.717 1505.32 234.69 1504.84 235.724L1500.71 234.247C1501.45 232.523 1502.43 231.181 1503.66 230.221C1504.91 229.249 1506.26 228.572 1507.72 228.19C1509.2 227.796 1510.65 227.599 1512.08 227.599C1512.99 227.599 1514.04 227.71 1515.22 227.931C1516.42 228.141 1517.57 228.578 1518.67 229.243C1519.79 229.907 1520.72 230.911 1521.46 232.252C1522.2 233.594 1522.57 235.392 1522.57 237.645V256.332H1518.21V252.491H1517.99C1517.7 253.107 1517.2 253.765 1516.51 254.467C1515.82 255.169 1514.91 255.766 1513.76 256.258C1512.62 256.751 1511.22 256.997 1509.57 256.997ZM1510.24 253.082C1511.96 253.082 1513.41 252.743 1514.59 252.066C1515.79 251.389 1516.69 250.515 1517.29 249.444C1517.91 248.373 1518.21 247.247 1518.21 246.065V242.076C1518.03 242.298 1517.62 242.501 1516.99 242.686C1516.38 242.858 1515.66 243.012 1514.85 243.147C1514.05 243.27 1513.27 243.381 1512.51 243.48C1511.76 243.566 1511.15 243.64 1510.68 243.701C1509.55 243.849 1508.49 244.089 1507.5 244.422C1506.53 244.742 1505.74 245.228 1505.14 245.88C1504.55 246.52 1504.25 247.395 1504.25 248.502C1504.25 250.017 1504.81 251.162 1505.93 251.937C1507.07 252.7 1508.5 253.082 1510.24 253.082Z" fill="#333333" fill-opacity="0.5"/>
<path d="M1542.86 227.968V231.662H1528.16V227.968H1542.86ZM1532.45 221.173H1536.8V248.207C1536.8 249.438 1536.98 250.361 1537.34 250.977C1537.71 251.58 1538.18 251.986 1538.74 252.196C1539.32 252.393 1539.93 252.491 1540.57 252.491C1541.05 252.491 1541.44 252.467 1541.75 252.417C1542.06 252.356 1542.31 252.306 1542.49 252.27L1543.38 256.184C1543.08 256.295 1542.67 256.406 1542.14 256.517C1541.61 256.64 1540.94 256.701 1540.13 256.701C1538.9 256.701 1537.69 256.437 1536.51 255.907C1535.34 255.378 1534.37 254.572 1533.59 253.488C1532.83 252.405 1532.45 251.038 1532.45 249.389V221.173Z" fill="#333333" fill-opacity="0.5"/>
<path d="M1549.42 256.332V227.968H1553.77V256.332H1549.42ZM1551.63 223.241C1550.78 223.241 1550.05 222.952 1549.43 222.373C1548.83 221.795 1548.53 221.099 1548.53 220.287C1548.53 219.474 1548.83 218.779 1549.43 218.2C1550.05 217.621 1550.78 217.332 1551.63 217.332C1552.48 217.332 1553.21 217.621 1553.81 218.2C1554.43 218.779 1554.73 219.474 1554.73 220.287C1554.73 221.099 1554.43 221.795 1553.81 222.373C1553.21 222.952 1552.48 223.241 1551.63 223.241Z" fill="#333333" fill-opacity="0.5"/>
<path d="M1573.28 256.923C1570.72 256.923 1568.47 256.314 1566.54 255.095C1564.62 253.876 1563.12 252.171 1562.03 249.98C1560.96 247.788 1560.43 245.228 1560.43 242.298C1560.43 239.343 1560.96 236.764 1562.03 234.561C1563.12 232.357 1564.62 230.646 1566.54 229.427C1568.47 228.208 1570.72 227.599 1573.28 227.599C1575.84 227.599 1578.08 228.208 1580 229.427C1581.93 230.646 1583.43 232.357 1584.51 234.561C1585.59 236.764 1586.13 239.343 1586.13 242.298C1586.13 245.228 1585.59 247.788 1584.51 249.98C1583.43 252.171 1581.93 253.876 1580 255.095C1578.08 256.314 1575.84 256.923 1573.28 256.923ZM1573.28 253.008C1575.22 253.008 1576.82 252.51 1578.08 251.512C1579.34 250.515 1580.26 249.204 1580.87 247.579C1581.47 245.954 1581.77 244.194 1581.77 242.298C1581.77 240.402 1581.47 238.636 1580.87 236.998C1580.26 235.361 1579.34 234.038 1578.08 233.028C1576.82 232.019 1575.22 231.514 1573.28 231.514C1571.33 231.514 1569.73 232.019 1568.48 233.028C1567.22 234.038 1566.29 235.361 1565.69 236.998C1565.09 238.636 1564.78 240.402 1564.78 242.298C1564.78 244.194 1565.09 245.954 1565.69 247.579C1566.29 249.204 1567.22 250.515 1568.48 251.512C1569.73 252.51 1571.33 253.008 1573.28 253.008Z" fill="#333333" fill-opacity="0.5"/>
<path d="M1597.14 239.27V256.332H1592.78V227.968H1596.99V232.4H1597.36C1598.03 230.96 1599.04 229.803 1600.39 228.929C1601.75 228.042 1603.49 227.599 1605.64 227.599C1607.56 227.599 1609.24 227.993 1610.68 228.781C1612.12 229.556 1613.24 230.738 1614.04 232.326C1614.84 233.902 1615.24 235.896 1615.24 238.309V256.332H1610.88V238.605C1610.88 236.377 1610.3 234.641 1609.14 233.397C1607.99 232.142 1606.4 231.514 1604.38 231.514C1602.99 231.514 1601.75 231.815 1600.65 232.419C1599.57 233.022 1598.71 233.902 1598.08 235.059C1597.45 236.217 1597.14 237.62 1597.14 239.27Z" fill="#333333" fill-opacity="0.5"/>
<path d="M1668.85 230.332H1664.27C1664 229.015 1663.52 227.858 1662.85 226.86C1662.18 225.863 1661.37 225.026 1660.41 224.349C1659.46 223.66 1658.41 223.143 1657.25 222.798C1656.09 222.453 1654.89 222.281 1653.63 222.281C1651.34 222.281 1649.27 222.859 1647.41 224.017C1645.56 225.174 1644.09 226.879 1643 229.132C1641.91 231.385 1641.37 234.148 1641.37 237.423C1641.37 240.698 1641.91 243.461 1643 245.714C1644.09 247.967 1645.56 249.672 1647.41 250.829C1649.27 251.986 1651.34 252.565 1653.63 252.565C1654.89 252.565 1656.09 252.393 1657.25 252.048C1658.41 251.703 1659.46 251.192 1660.41 250.515C1661.37 249.826 1662.18 248.983 1662.85 247.985C1663.52 246.976 1664 245.819 1664.27 244.514H1668.85C1668.5 246.447 1667.88 248.176 1666.97 249.703C1666.05 251.229 1664.92 252.528 1663.57 253.599C1662.21 254.658 1660.69 255.464 1659.01 256.018C1657.33 256.572 1655.54 256.849 1653.63 256.849C1650.41 256.849 1647.54 256.061 1645.03 254.485C1642.52 252.91 1640.54 250.669 1639.1 247.764C1637.66 244.859 1636.94 241.412 1636.94 237.423C1636.94 233.434 1637.66 229.987 1639.1 227.082C1640.54 224.177 1642.52 221.936 1645.03 220.36C1647.54 218.785 1650.41 217.997 1653.63 217.997C1655.54 217.997 1657.33 218.274 1659.01 218.828C1660.69 219.382 1662.21 220.194 1663.57 221.265C1664.92 222.324 1666.05 223.617 1666.97 225.143C1667.88 226.657 1668.5 228.387 1668.85 230.332Z" fill="#333333" fill-opacity="0.5"/>
<path d="M1687.55 256.923C1684.82 256.923 1682.46 256.32 1680.48 255.113C1678.51 253.895 1676.99 252.196 1675.92 250.017C1674.86 247.825 1674.33 245.277 1674.33 242.372C1674.33 239.467 1674.86 236.906 1675.92 234.69C1676.99 232.462 1678.48 230.726 1680.39 229.483C1682.31 228.227 1684.55 227.599 1687.11 227.599C1688.58 227.599 1690.04 227.845 1691.48 228.338C1692.92 228.83 1694.23 229.63 1695.42 230.738C1696.6 231.834 1697.54 233.287 1698.24 235.096C1698.94 236.906 1699.29 239.134 1699.29 241.781V243.627H1677.43V239.86H1694.86C1694.86 238.26 1694.54 236.832 1693.9 235.576C1693.27 234.321 1692.38 233.33 1691.21 232.603C1690.05 231.877 1688.68 231.514 1687.11 231.514C1685.37 231.514 1683.87 231.945 1682.6 232.806C1681.35 233.656 1680.38 234.764 1679.7 236.13C1679.02 237.497 1678.69 238.962 1678.69 240.525V243.037C1678.69 245.179 1679.06 246.994 1679.79 248.484C1680.55 249.961 1681.59 251.088 1682.92 251.863C1684.24 252.627 1685.79 253.008 1687.55 253.008C1688.69 253.008 1689.73 252.848 1690.65 252.528C1691.59 252.196 1692.39 251.703 1693.07 251.051C1693.75 250.386 1694.27 249.561 1694.64 248.576L1698.85 249.758C1698.41 251.186 1697.66 252.442 1696.62 253.525C1695.57 254.596 1694.28 255.433 1692.74 256.037C1691.2 256.627 1689.47 256.923 1687.55 256.923Z" fill="#333333" fill-opacity="0.5"/>
<path d="M1710.28 239.27V256.332H1705.92V227.968H1710.13V232.4H1710.5C1711.17 230.96 1712.18 229.803 1713.53 228.929C1714.89 228.042 1716.63 227.599 1718.78 227.599C1720.7 227.599 1722.38 227.993 1723.82 228.781C1725.26 229.556 1726.38 230.738 1727.18 232.326C1727.98 233.902 1728.38 235.896 1728.38 238.309V256.332H1724.02V238.605C1724.02 236.377 1723.44 234.641 1722.28 233.397C1721.13 232.142 1719.54 231.514 1717.52 231.514C1716.13 231.514 1714.89 231.815 1713.79 232.419C1712.71 233.022 1711.85 233.902 1711.22 235.059C1710.6 236.217 1710.28 237.62 1710.28 239.27Z" fill="#333333" fill-opacity="0.5"/>
<path d="M1748.68 227.968V231.662H1733.98V227.968H1748.68ZM1738.26 221.173H1742.62V248.207C1742.62 249.438 1742.8 250.361 1743.16 250.977C1743.52 251.58 1743.99 251.986 1744.56 252.196C1745.14 252.393 1745.75 252.491 1746.39 252.491C1746.87 252.491 1747.26 252.467 1747.57 252.417C1747.88 252.356 1748.12 252.306 1748.31 252.27L1749.19 256.184C1748.9 256.295 1748.49 256.406 1747.96 256.517C1747.43 256.64 1746.76 256.701 1745.94 256.701C1744.71 256.701 1743.51 256.437 1742.32 255.907C1741.15 255.378 1740.18 254.572 1739.41 253.488C1738.64 252.405 1738.26 251.038 1738.26 249.389V221.173Z" fill="#333333" fill-opacity="0.5"/>
<path d="M1766.82 256.923C1764.09 256.923 1761.73 256.32 1759.75 255.113C1757.78 253.895 1756.26 252.196 1755.19 250.017C1754.13 247.825 1753.6 245.277 1753.6 242.372C1753.6 239.467 1754.13 236.906 1755.19 234.69C1756.26 232.462 1757.75 230.726 1759.65 229.483C1761.58 228.227 1763.82 227.599 1766.38 227.599C1767.85 227.599 1769.31 227.845 1770.75 228.338C1772.19 228.83 1773.5 229.63 1774.69 230.738C1775.87 231.834 1776.81 233.287 1777.51 235.096C1778.21 236.906 1778.56 239.134 1778.56 241.781V243.627H1756.7V239.86H1774.13C1774.13 238.26 1773.81 236.832 1773.17 235.576C1772.54 234.321 1771.65 233.33 1770.48 232.603C1769.32 231.877 1767.95 231.514 1766.38 231.514C1764.64 231.514 1763.14 231.945 1761.87 232.806C1760.61 233.656 1759.65 234.764 1758.97 236.13C1758.29 237.497 1757.96 238.962 1757.96 240.525V243.037C1757.96 245.179 1758.33 246.994 1759.06 248.484C1759.81 249.961 1760.86 251.088 1762.18 251.863C1763.51 252.627 1765.06 253.008 1766.82 253.008C1767.96 253.008 1769 252.848 1769.92 252.528C1770.86 252.196 1771.66 251.703 1772.34 251.051C1773.02 250.386 1773.54 249.561 1773.91 248.576L1778.12 249.758C1777.68 251.186 1776.93 252.442 1775.89 253.525C1774.84 254.596 1773.55 255.433 1772.01 256.037C1770.47 256.627 1768.74 256.923 1766.82 256.923Z" fill="#333333" fill-opacity="0.5"/>
<path d="M1785.19 256.332V227.968H1789.4V232.252H1789.7C1790.22 230.849 1791.15 229.71 1792.51 228.836C1793.86 227.962 1795.39 227.525 1797.09 227.525C1797.41 227.525 1797.81 227.531 1798.29 227.544C1798.77 227.556 1799.13 227.574 1799.37 227.599V232.031C1799.23 231.994 1798.89 231.939 1798.36 231.865C1797.84 231.779 1797.29 231.735 1796.72 231.735C1795.34 231.735 1794.11 232.025 1793.02 232.603C1791.95 233.17 1791.1 233.958 1790.47 234.967C1789.86 235.964 1789.55 237.103 1789.55 238.383V256.332H1785.19Z" fill="#333333" fill-opacity="0.5"/>
<path d="M460.188 49.586V61.42L420.294 61.908V67.642H464.702V78.134H420.294V83.868H460.188V124.616H420.294V130.716H460.066V141.208H420.294V147.43H466.532V159.142H356V147.43H402.482V141.208H362.588V130.716H402.482V124.616H362.222V83.868H402.482V78.134H357.952V67.642H402.482V62.152L362.344 62.518V50.684L460.188 49.586ZM378.326 115.222H402.482V108.268H378.326V115.222ZM378.326 100.216H402.482V93.262H378.326V100.216ZM420.294 93.262V100.216H444.084V93.262H420.294ZM444.084 115.222V108.268H420.294V115.222H444.084Z" fill="#333333"/>
<path d="M569.866 159.142C567.914 155.807 565.84 151.781 563.644 147.064C561.529 142.428 559.455 137.548 557.422 132.424C555.47 127.219 553.64 122.013 551.932 116.808C550.305 111.603 549.004 106.763 548.028 102.29H546.564C543.799 113.189 540.261 123.355 535.95 132.79C531.639 142.225 526.8 151.009 521.432 159.142H501.546C507.402 150.358 512.689 141.167 517.406 131.57C522.123 121.973 525.987 112.213 528.996 102.29H504.108V88.26H532.656C533.225 85.6573 533.713 83.0953 534.12 80.574C534.527 77.9713 534.852 75.3687 535.096 72.766H551.688C551.444 75.3687 551.119 77.9713 550.712 80.574C550.387 83.1767 550.021 85.7387 549.614 88.26H586.458V102.29H563.4C564.62 106.601 566.084 111.155 567.792 115.954C569.581 120.753 571.533 125.633 573.648 130.594C575.763 135.474 578.04 140.354 580.48 145.234C582.92 150.033 585.441 154.669 588.044 159.142H569.866ZM477.512 159.142C478.325 156.377 479.098 153.286 479.83 149.87C480.643 146.454 481.335 142.875 481.904 139.134C482.473 135.311 482.921 131.407 483.246 127.422C483.571 123.355 483.734 119.289 483.734 115.222V55.198H529.118C528.549 53.8967 527.979 52.6767 527.41 51.538C526.922 50.318 526.393 49.1793 525.824 48.122H544.002C544.49 49.098 545.019 50.196 545.588 51.416C546.157 52.5547 546.767 53.8153 547.418 55.198H586.824V69.35H499.35V115.222C499.35 123.925 498.903 132.017 498.008 139.5C497.195 146.983 496.015 153.53 494.47 159.142H477.512Z" fill="#333333"/>
<path d="M623.18 113.392V144.746H710.898V159.142H606.1V51.782H705.53V113.392H623.18ZM664.172 65.69V99.484H688.694V65.69H664.172ZM623.18 99.484H647.58V65.69H623.18V99.484Z" fill="#333333"/>
<path d="M769.458 55.32L770.678 48H786.538L785.44 55.32H831.19V66.544H783.976L782.756 75.206H828.628V134.498C828.628 138.565 828.384 142.835 827.896 147.308C827.408 151.863 826.188 155.807 824.236 159.142H806.302C808.579 155.726 810.206 151.781 811.182 147.308C812.239 142.916 812.768 138.646 812.768 134.498V87.772H742.618V159.142H726.758V75.206H766.042L767.506 66.544H722.976V55.32H769.458ZM758.112 103.998C757.543 101.965 756.851 99.728 756.038 97.288C755.225 94.7667 754.411 92.652 753.598 90.944H767.872C768.279 91.676 768.685 92.5707 769.092 93.628C769.58 94.604 770.068 95.702 770.556 96.922C771.044 98.142 771.491 99.362 771.898 100.582C772.305 101.802 772.671 102.941 772.996 103.998H783.366C784.423 102.046 785.481 99.8093 786.538 97.288C787.677 94.7667 788.531 92.6927 789.1 91.066H804.594C803.943 92.9367 803.089 95.092 802.032 97.532C801.056 99.972 800.039 102.127 798.982 103.998H807.4V115.832H786.172V125.958H808.498V138.036H786.172V159.142H771.166V138.036H746.888V125.958H771.166V115.832H748.23V103.998H758.112Z" fill="#333333"/>
<path d="M892.922 96.678V75.572H867.79C866.977 78.1747 866.163 80.6553 865.35 83.014C864.537 85.2913 863.723 87.3653 862.91 89.236H845.342C846.399 86.796 847.538 83.9087 848.758 80.574C849.978 77.158 851.076 73.7013 852.052 70.204C853.109 66.6253 854.045 63.2093 854.858 59.956C855.671 56.6213 856.241 53.7747 856.566 51.416H873.28C873.117 52.88 872.873 54.466 872.548 56.174C872.304 57.8007 871.979 59.5493 871.572 61.42H892.922V48.122H910.124V61.42H948.676V75.572H910.124V96.678H952.824V110.83H926.35V145.112H954.898V159.142H909.514V110.83H889.14C888.327 114.653 887.269 118.719 885.968 123.03C884.667 127.259 883.162 131.529 881.454 135.84C879.827 140.069 878.038 144.177 876.086 148.162C874.134 152.229 872.101 155.889 869.986 159.142H848.758C851.442 155.726 853.963 151.985 856.322 147.918C858.762 143.851 860.999 139.663 863.032 135.352C865.065 131.041 866.814 126.812 868.278 122.664C869.823 118.435 871.043 114.49 871.938 110.83H846.562V96.678H892.922Z" fill="#333333"/>
<path d="M1012.24 93.506V74.23H999.428V60.078H1012.24V48.122H1027.98V60.078H1046.76V48.122H1062.5V60.078H1073.97V74.23H1062.5V93.506H1076.17V107.78H1062.5V141.208H1046.76V107.78H1027.61C1027.12 114.937 1026.11 121.322 1024.56 126.934C1023.01 132.465 1021.1 137.223 1018.83 141.208H1001.38C1004.39 136.084 1006.75 130.879 1008.46 125.592C1010.25 120.305 1011.38 114.368 1011.87 107.78H997.11V93.506H1012.24ZM993.206 74.84L986.374 145.722H1076.78V159.142H969.172L976.004 87.894H965.756V74.84H993.206ZM1027.98 93.506H1046.76V74.23H1027.98V93.506ZM976.614 68.374C975.882 64.8767 975.069 61.6233 974.174 58.614C973.361 55.5233 972.385 52.4327 971.246 49.342H987.35C988.489 52.1073 989.546 55.076 990.522 58.248C991.498 61.3387 992.433 64.714 993.328 68.374H976.614Z" fill="#333333"/>
<path d="M1177.3 159.142C1174.95 157.271 1172.59 155.279 1170.23 153.164C1167.87 151.131 1165.59 148.935 1163.4 146.576C1161.04 149.097 1158.72 151.375 1156.44 153.408C1154.25 155.523 1152.09 157.434 1149.98 159.142H1126.67C1131.15 155.645 1135.66 151.822 1140.22 147.674C1144.77 143.526 1149.12 139.134 1153.27 134.498C1148.15 127.747 1143.59 120.549 1139.61 112.904C1135.62 105.177 1132.33 97.2473 1129.72 89.114H1154.61V74.718H1128.75V61.176H1154.61V48.122H1170.96V61.176H1198.78V74.718H1170.96V89.114H1197.43C1194.83 97.9793 1191.37 106.275 1187.06 114.002C1182.83 121.729 1178.24 128.764 1173.28 135.108C1177.26 139.5 1181.45 143.689 1185.84 147.674C1190.24 151.659 1194.83 155.482 1199.63 159.142H1177.3ZM1099.59 66.3V48.122H1114.96V66.3H1125.58V79.598H1114.96V101.558L1125.58 99.24V113.514L1114.96 115.832V128.642C1114.96 132.465 1114.84 135.84 1114.6 138.768C1114.35 141.696 1113.99 144.339 1113.5 146.698C1113.01 149.057 1112.36 151.212 1111.55 153.164C1110.81 155.197 1109.96 157.19 1108.98 159.142H1090.44C1091.99 156.783 1093.33 154.506 1094.47 152.31C1095.6 150.114 1096.54 147.837 1097.27 145.478C1098.09 143.038 1098.65 140.476 1098.98 137.792C1099.39 135.027 1099.59 131.977 1099.59 128.642V119.126L1087.63 121.688V107.292L1099.59 104.73V79.598H1087.76V66.3H1099.59ZM1150.1 101.314C1151.81 104.974 1153.72 108.593 1155.83 112.172C1158.03 115.751 1160.43 119.289 1163.03 122.786C1165.88 119.126 1168.4 115.507 1170.59 111.928C1172.79 108.268 1174.62 104.73 1176.08 101.314H1150.1Z" fill="#333333"/>
<path d="M1210 159.142C1212.28 153.693 1214.43 147.755 1216.47 141.33C1218.58 134.905 1220.49 128.276 1222.2 121.444C1223.99 114.612 1225.53 107.739 1226.84 100.826C1228.14 93.8313 1229.24 87.04 1230.13 80.452H1209.88V65.568H1257.34V48H1273.56V65.568H1320.65V80.452H1299.79C1300.77 87.1213 1301.95 93.9127 1303.33 100.826C1304.79 107.658 1306.38 114.49 1308.09 121.322C1309.88 128.073 1311.79 134.661 1313.82 141.086C1315.94 147.43 1318.13 153.449 1320.41 159.142H1302.72C1298.33 147.918 1294.55 135.555 1291.37 122.054C1288.28 108.471 1285.8 94.604 1283.93 80.452H1273.56V159.142H1257.34V80.452H1246.36C1245.46 87.6907 1244.36 94.97 1243.06 102.29C1241.76 109.529 1240.3 116.564 1238.67 123.396C1237.12 130.228 1235.42 136.694 1233.55 142.794C1231.68 148.813 1229.72 154.262 1227.69 159.142H1210ZM1292.72 62.152C1292.55 61.2573 1292.35 60.1593 1292.11 58.858C1291.94 57.4753 1291.7 56.1333 1291.37 54.832C1291.05 53.4493 1290.72 52.1887 1290.4 51.05C1290.15 49.83 1289.91 48.854 1289.67 48.122H1306.99C1307.32 48.854 1307.64 49.83 1307.97 51.05C1308.37 52.1887 1308.74 53.4493 1309.06 54.832C1309.47 56.1333 1309.8 57.4753 1310.04 58.858C1310.37 60.1593 1310.61 61.2573 1310.77 62.152H1292.72Z" fill="#333333"/>
<path d="M1336.15 159.142V87.04H1394.34V111.44C1394.26 115.263 1393.65 119.126 1392.51 123.03C1391.45 126.934 1389.79 130.228 1387.51 132.912H1369.45C1372.3 130.309 1374.58 127.219 1376.29 123.64C1377.99 119.98 1378.85 115.913 1378.85 111.44V100.826H1351.76V145.478H1397.39V159.142H1336.15ZM1415.33 159.02C1416.55 157.475 1417.77 155.645 1418.99 153.53C1420.21 151.415 1421.3 149.057 1422.28 146.454C1423.26 143.933 1424.03 141.208 1424.6 138.28C1425.25 135.271 1425.57 132.099 1425.57 128.764V48.122H1441.31V128.764C1441.31 135.677 1440.7 141.696 1439.48 146.82C1438.34 151.944 1437.16 156.011 1435.94 159.02H1415.33ZM1380.31 83.502C1377.63 79.11 1375.03 74.6367 1372.5 70.082C1369.98 65.446 1367.66 60.81 1365.55 56.174C1363.44 61.054 1361.12 65.7713 1358.6 70.326C1356.16 74.7993 1353.55 79.1913 1350.79 83.502H1331.51C1333.79 80.2487 1335.86 77.158 1337.73 74.23C1339.69 71.2207 1341.48 68.2927 1343.1 65.446C1344.73 62.518 1346.23 59.6307 1347.62 56.784C1349 53.9373 1350.26 51.05 1351.4 48.122H1379.09C1381.53 52.8393 1384.46 58.3293 1387.88 64.592C1391.37 70.7733 1395.2 77.0767 1399.34 83.502H1380.31ZM1402.64 55.32H1417.52V137.06H1402.64V55.32Z" fill="#333333"/>
<path d="M1499.63 159.142C1499.38 156.458 1499.06 153.489 1498.65 150.236C1498.33 146.983 1497.96 143.648 1497.55 140.232C1497.15 136.735 1496.7 133.278 1496.21 129.862C1495.81 126.365 1495.36 123.071 1494.87 119.98H1505.97C1506.46 122.989 1506.91 126.161 1507.31 129.496C1507.8 132.749 1508.29 136.043 1508.78 139.378C1509.27 142.631 1509.71 145.885 1510.12 149.138C1510.53 152.391 1510.89 155.482 1511.22 158.41C1513.09 154.181 1514.39 149.423 1515.12 144.136C1515.85 138.768 1516.22 133.644 1516.22 128.764V51.538L1563.19 48.854V63.25L1530.74 65.202V80.574H1564.9V94.482H1556.6V159.142H1542.57V94.482H1530.74V128.642C1530.74 134.498 1530.41 140.069 1529.76 145.356C1529.19 150.561 1528.3 155.157 1527.08 159.142H1499.63ZM1476.2 53.978C1475.96 52.8393 1475.68 51.7413 1475.35 50.684C1475.02 49.6267 1474.74 48.7727 1474.5 48.122H1489.75C1489.99 48.7727 1490.27 49.6267 1490.6 50.684C1491.01 51.7413 1491.41 52.8393 1491.82 53.978H1511.1V66.544H1505.85C1505.2 69.228 1504.51 71.8713 1503.78 74.474C1503.13 76.9953 1502.35 79.5167 1501.46 82.038H1512.44V94.604H1490.97V102.778H1511.46V115.588H1490.97V133.156C1490.97 137.629 1490.72 142.184 1490.23 146.82C1489.75 151.456 1489.01 155.563 1488.04 159.142H1470.59C1472.46 155.645 1473.89 151.7 1474.86 147.308C1475.92 142.916 1476.45 138.158 1476.45 133.034V115.588H1455.22V102.778H1476.45V94.604H1454V82.038H1465.22C1464.65 79.5167 1464 76.914 1463.27 74.23C1462.62 71.546 1461.89 68.984 1461.08 66.544H1455.71V53.978H1476.2ZM1452.9 159.142C1454.77 152.879 1456.28 146.413 1457.42 139.744C1458.64 132.993 1459.57 126.405 1460.22 119.98H1472.18C1471.53 126.487 1470.63 133.156 1469.49 139.988C1468.36 146.739 1466.93 153.123 1465.22 159.142H1452.9ZM1487.67 82.038C1488.57 79.354 1489.38 76.7107 1490.11 74.108C1490.84 71.424 1491.49 68.9027 1492.06 66.544H1474.74C1475.55 68.984 1476.33 71.5053 1477.06 74.108C1477.79 76.6293 1478.52 79.2727 1479.25 82.038H1487.67Z" fill="#333333"/>
<path d="M1622.24 127.788H1580.88V63.372H1622.24V48.244H1640.05V63.372H1681.77V127.788H1640.05V159.02H1622.24V127.788ZM1640.05 77.89V113.392H1664.33V77.89H1640.05ZM1598.2 113.392H1622.24V77.89H1598.2V113.392Z" fill="#333333"/>
<path d="M1729.23 159.142V51.05H1746.19V144.502H1785.96V159.142H1729.23ZM1698.37 155.116C1699.34 146.332 1700.2 137.751 1700.93 129.374C1701.66 120.997 1702.31 112.701 1702.88 104.486C1703.45 96.19 1703.94 87.9753 1704.34 79.842C1704.83 71.7087 1705.24 63.5347 1705.56 55.32H1721.3C1720.98 63.86 1720.65 72.0747 1720.33 79.964C1720 87.772 1719.59 95.6613 1719.11 103.632C1718.7 111.521 1718.21 119.695 1717.64 128.154C1717.07 136.531 1716.42 145.519 1715.69 155.116H1698.37ZM1791.57 155.238C1790.6 144.177 1789.7 134.173 1788.89 125.226C1788.08 116.279 1787.34 107.861 1786.69 99.972C1786.04 92.0827 1785.43 84.5593 1784.86 77.402C1784.29 70.1633 1783.73 62.8027 1783.16 55.32H1798.77C1799.34 62.9653 1799.91 70.4073 1800.48 77.646C1801.13 84.8033 1801.82 92.286 1802.55 100.094C1803.29 107.902 1804.1 116.279 1804.99 125.226C1805.97 134.173 1807.07 144.177 1808.29 155.238H1791.57ZM1761.93 136.938C1761.2 128.073 1760.55 119.695 1759.98 111.806C1759.41 103.917 1758.88 96.3527 1758.39 89.114C1757.9 81.8753 1757.45 74.8807 1757.05 68.13C1756.64 61.3793 1756.28 54.71 1755.95 48.122H1771.2C1771.61 55.442 1772.01 62.4367 1772.42 69.106C1772.83 75.694 1773.27 82.4853 1773.76 89.48C1774.25 96.3933 1774.82 103.713 1775.47 111.44C1776.12 119.085 1776.89 127.585 1777.79 136.938H1761.93Z" fill="#333333"/>
</svg>
