<?xml version="1.0" encoding="UTF-8" standalone="no"?>

<svg xmlns="http://www.w3.org/2000/svg"
     version="1.0"
     viewBox="0 0 570 755"
>
  <g name="奉节县" adcode="500236">
    <path
      d="M547.05,179.26c-.08.13,2.4,7,1.74,8.51.86.1-7.24,8-7.24,8s-1.48,1.44-1.22,2.47a21.18,21.18,0,0,1,1,6.59s.68,1.12,1.35,2.37c.22,3.15.66,3.88.66,3.88s3,2.86,2.21,4.29a38.73,38.73,0,0,0-7.44.18s-.58-.28-1.41-1.84a7.66,7.66,0,0,0-2.21,2.91l-.42,2s-1.9,1.56-.68,2.53.65,1.35.65,1.35a16.76,16.76,0,0,0-2.36,2c-2,1-3.1.18-3.1.18-2.79,1.67-4.84,6.15-9.06,6.67-1.1-.8-1.84-.8-2.34-.24a11.37,11.37,0,0,1-2.42,2.95c-.5,1.12.57,2.26.41,3.72a13.67,13.67,0,0,0-1.77,8.15c-.57.85-.66,2.65-.55,4.84a9.93,9.93,0,0,1-3.74,3,7.17,7.17,0,0,1-2.48,3.36,7.64,7.64,0,0,0-4.52,1.17s-1,2.11-1.49,2.08c-5.07,1.38-5.6,2.58-5.6,2.58-3.64,3.17-4.73,3.36-11,2.21-1.35,2.47-3.75,3.33-6.84,6.3-3.1,0-3.52,2.11-5.37,3.46a13.21,13.21,0,0,0-4.21.55,19.54,19.54,0,0,1-4.06,3,13.64,13.64,0,0,0-5.49,2.47,4.58,4.58,0,0,1-2.89,2.79c-2.79.13-3,1.48-3.26,1.63a21.21,21.21,0,0,1-3,1.57,2.27,2.27,0,0,0-1.45,1.22c-.47-.14-4.87,2.17-7.24,3.54,0,0-.06,0-.17,0-.91.33-5.08,2.44-5.2,2.39s-.1,0-.23.1a14.2,14.2,0,0,0-3.25,2.5c-1.89.25-8.36,6-8.36,6s2.61.76,4.61,1.25c2.66,7,5.6,8.67,6.22,9.87-.23.6-.65,1.64-.65,1.64,2.13,1.25,3.69,2.39,3.57,3.23-2.19,7.7-6.2,5.46-9.64,12.34-.52,7.86-.1,5.57,1.65,11.21-1.61,6.24-2.89,7.74-3.49,9.53a6.8,6.8,0,0,0-.33,1.56c1.07,2.52,2.57,4.32,2.22,6.09a3.82,3.82,0,0,1,1,1,18.24,18.24,0,0,1-1,3.41c.18.77-.88,1.31-1,1.39-2.33,3,1.69,4.47,1.69,4.47,1.1,3.1,2.1,5.52,1.45,8.22,1.54,1.58,5.8,3.67,5.58,6.07.65.47.48.7.57,2a5,5,0,0,0,1.36,2.36c-1.14,2.72.09,2.56-.21,5.65-6.46-1.92-7-.22-7-.22s-2.18-1-3.71-1.87c-4.54-1.74-3.47,2.32-3.47,2.32a13.41,13.41,0,0,1-.47,1.39l-5.82.25a7.81,7.81,0,0,1-2.79.7c-3.47-.62-4.87-.85-5.64-.95a50.25,50.25,0,0,1-8.73,5.54,2.24,2.24,0,0,0,.32,1.46,13.21,13.21,0,0,0,2.49,2.52l.51.92a16.17,16.17,0,0,0,.16,3.53c.5.81,1.17,1.73,1.91,2.72l.1,3.59a1.13,1.13,0,0,1,.37,1,2.37,2.37,0,0,0,.52,1.13,11.09,11.09,0,0,0,2.31,2,6.33,6.33,0,0,1,2,.28h0l1.07.76,3.65.14c.09.15.38.3.91.43a2.89,2.89,0,0,1,2,.13,7.2,7.2,0,0,0,4.45,4.86,3,3,0,0,1,1.94.22c.29-.4,1.19-.7,2.69-.9a5.39,5.39,0,0,0,1.87.45c1.85.34,3,.73,3.38,1.19a8.54,8.54,0,0,1,1.9,2.24,1,1,0,0,0,1.25,0s3-4.1,4.23,1c-3,3.28.12,9.06.12,9.06s.06.49-.7,1.3c-5,.1-5.12,1.86-5.12,1.86a12.15,12.15,0,0,1-.09,3.77,2.13,2.13,0,0,0-.63,2c-.62.11,2.52,2.21,2.52,2.21s.15,1.56.23,2.1c-.23,0,1.29.9,1.29.9a16.38,16.38,0,0,1,3.59,1.23l-.46,2.36c1.6-.21,2.64-.12,3.14.24a4,4,0,0,0,.19,2.44,17.18,17.18,0,0,1,4.34-.37,7.68,7.68,0,0,0,.31,3.2c1.09,1.15,6.21-.28,6.21-.28l1.6-.56s.49.49,0,.84a3,3,0,0,0-.8,1.07s.13.76.51,2.17a6,6,0,0,1,1.13,3.4l1,2.61a15.05,15.05,0,0,0,1.16,2.34c.05,1.51.76,1.94.76,1.94,1.07,1,2.09,1.65,1,3.53a8.67,8.67,0,0,1-1.48,1.74,1.94,1.94,0,0,1-.72,1.21c.81.86,1.49,1.6,2.09,2.26a23.36,23.36,0,0,0,.76,2.38c3.55,4.06,3,4.64,3.41,5.69,1.13,2.24-.07,2.73-.07,2.73a14.65,14.65,0,0,1-.69,5.05c.52-.18,2.27,4.38,3.65,5a2.36,2.36,0,0,1,2.13,2.44,10.38,10.38,0,0,1,1.21,3.51,6.14,6.14,0,0,0-1,4.14c.84.72,1.41.11,1.62,2.63a9.6,9.6,0,0,0-1.41,3.44c.5,2.55,3.54,3.36,3.54,3.36a5.54,5.54,0,0,1-.44,3.2c-1,1-1.1,2.08-.89,2s2.06,1,2.24,1,.13,1.26.13,1.26,1.82,1.5-.39,4.11a6.53,6.53,0,0,0-1.82,6.24c-2,1.67-2,4.82-5.6,5.6,0,0-.62,1.62-5.93,5.21-3,4.06-5.42,5.25-5.62,5.25s-1,.73-1.54,3.23c-2.27-.18-1.56.39-2.14.55a1.91,1.91,0,0,1-1,0,4.71,4.71,0,0,1-1.51,1.38c-2.52-1.3-3.56,2.47-3.56,2.47a8.94,8.94,0,0,1-2.58.94,5.26,5.26,0,0,0-1.51-2.29,6.93,6.93,0,0,0-2.34-.11,3.67,3.67,0,0,0-1.95,1.25l-1.33.42L434,568c-.42-.19-2,1.74-2,1.74l-2-.21s-.34-.07-1.48.65a1.58,1.58,0,0,0-1.41-.26c-1.22-.31-1.16.06-1.35.86.08.25-.84-.15-1.51.55-1.8-.18-2.19,1-2.19,1s-.13.6-2,.47c.94,2.44-1,4.92-1,4.92a3.45,3.45,0,0,1,.42,1.27c0,.6-.62,2.76,1.38,1.3,3.23-2.73,1.1,1.39,1.1,1.39l-1.13,1.35-1,1.07-4.08,6.27c.67,2.31,3.09,2.6,4.45,4.63-.28.16-.45.53-.5,1.15,0,0-.62.39-1.25.73a1.6,1.6,0,0,0-.46,1.53c0,.21-.89.58-1.28.34s-2.21,1.51-2.21,1.51l.18,2a8.08,8.08,0,0,0-1.56,3.07,2.89,2.89,0,0,0,2.19,1.77s.65.16.26.6c-2.11.7-1.8.86-2,2.24-1.51,1.35-3.67,2.58-3.91,2.47s-.85,1.82-2.08,2c-.44.11-1.73-.63-2.94-.6,0,0-1.32-.57-4.29.81-2.16-.57-2.45.65-2.71.7-2.24,1.51-2.84,1.35-2.84,1.35-2.16.68-2-1.64-4.24-.31a6.75,6.75,0,0,1-3.1,3.31s-1.71,1.12-2.13-.83a3.76,3.76,0,0,0-2.92.88s-1.12-.49-.78-2.79a71.14,71.14,0,0,0,4.77-6.56s.15-.91.34-2.47a8.22,8.22,0,0,0,.41-4.87l-4.4-8s-.69-.92-3.35,1-3.41,4.62-3.88,4.79-4.59,4.4-5.81,4.37a25.18,25.18,0,0,0-3.07.5c0-.48-5.89,6.18-7.67,8.54a7,7,0,0,0-.43.6c-.45,1.36-6.42,6.58-6.42,6.58s-6,8.75-6.1,8.77c-.93,2.35-1.92,3.54-3.17,4.3-2.78-1.17-6.2.61-6.45,1.17s-1.26.7-2.9.68a3.39,3.39,0,0,0-2.62,1.53,3.53,3.53,0,0,0-1.51-.23c-.65.11-2.4,2.52-2.22,2.13l-1.09.86-2.29,1.82a2.11,2.11,0,0,0-1.59,1.25A2,2,0,0,0,321,646a2.65,2.65,0,0,1,.68,2.87c-2.47,1.32-3.56,4.44-4.08,4.16s-6.83,3.31-6.83,3.31-.54,1.66-1.66,4.66a15.23,15.23,0,0,0-2.58,6.76,10.86,10.86,0,0,1-.67,2.68s-1,1-1.36,1.1-.75,2,.08,2.78.44,1.09.44,1.74-3.33,3.13-3.33,3.13-2.08,3.67-2.94,5c-1.41.42-4,9.24-4,9.24h-.86a9.51,9.51,0,0,1-3.21,3c-1.84.88-1.61,3.46-1.87,3.93.29.26-1.14,2.6-1.14,2.6s-1.64,1.33-1.72,2.45a6.63,6.63,0,0,1-.36,1.82s-1.1-.34-2,2-1.56,2-1.79,2.39a33.9,33.9,0,0,1-3.78,2.63c-.39.29-.57,1.69-2,2.48,0,0-3.83,3.66-4.84,5.72a16.37,16.37,0,0,0-3.57,6.43c0,.07-3.64,4.43-3.67,5.05a14.46,14.46,0,0,0,0,1.87c-3,3-7.93,6.51-8.25,8.38,0,0,.13,2.4-.65,3.2a15.31,15.31,0,0,0-4.21,1.41c-.58-.05-.79,1.9-2.11,1.77-.68,0-.65-2.11-.94-3.7s-3-1.76-3-1.76-2.08-.66-1.67-2a3.49,3.49,0,0,0,.31-2.94,19.76,19.76,0,0,0-2.52-2.29c-.73.83-.37-2.7-.37-2.7l-1.32-.94a5,5,0,0,1-.39-1.56c.65-2.11,2.29-1.93,2.29-1.93s1.79-5.23-.71-6.69a3.21,3.21,0,0,1-1.82-3.62c0-4.21,2.76-4.58,3.62-6.53.76-.16,3.67-.83,3.28-4.79s.49-4.14.49-4.14c2.14-1.77,5.89-4.92,5.52-5.57s6.67-4.87,6.07-6.38a4.58,4.58,0,0,0-2.14-2.26c-.16,0-.18-1.56-.18-1.67a5.7,5.7,0,0,0-1.28-.21l-.57-1.37a16.73,16.73,0,0,0-4.48-2c-.31-1.09-1.39-1.53-1.79-2.29-.39-1.33,1.69-4.21,1.14-4.17s-5.69-6.55-6-7-4.27-.34-4.27-.34.68-2.5,0-3.25c-1-1-3.52-1.22-3.52-1.22a1.19,1.19,0,0,0-.85-1.54c-1.7.13-1.8-1-2.11-1.69-.55-.42.78-2.53-1.38-2.21-3.39-.76-3.49-1.91-4.14-1.93s.52-1.38,0-2.14c-.31-.39-2,.76-2.06.47s-4.6-.62-4.6-.62-.13-.63-.21-1.2c-1-1-1.44-.42-1.83-.62s-.36-1.36-.36-1.36,2.34-.91,3.36-1.27c1.2-1.59,1.9-1.25,1.9-1.25a15.15,15.15,0,0,0,2.52,1.48c1.85-.62,4.79-3.23,4.35-5.75a8.26,8.26,0,0,1,.39-4.4,4.27,4.27,0,0,0,1.56-.47,4.67,4.67,0,0,0,.5-1.3,1.38,1.38,0,0,0-.5-.73c.11-.52-1.9-.88-1.9-.88a3,3,0,0,1,.5-1.33c-.5-.89-1.17-.44-1.2-.57s-.86,1.22-.86,1.22l-1.12.16a10,10,0,0,1-.54,2.13c-3.6,1.54-3,3.38-3,4.24,0,.65-2.52,2-2.52,2s-.68.76-2.81-2.65c-.58-6.61-3.53-8.85-3.53-8.85.06-.53-3.44-.12-4.4-.52h0a23.12,23.12,0,0,1,0-4.53l3.29-2.68a20.7,20.7,0,0,0-3.92-.24c-2.32.63-1.41,3.06-1.35,5-.29,2.71-1.43,1.57-1.77,1.44s-3.83,3.42-5.22,4.32a.8.8,0,0,1-.51.2,12,12,0,0,0-1.9,4,4.32,4.32,0,0,1-1.19.84c-.42-.13-1.06,1.94-1.65,2.57s-2.32,1.49-2.63,1.33-1.12,1.08-1.12,1.08a13.59,13.59,0,0,1-2.74,1.24,5.39,5.39,0,0,1-2.38,2.12A2.33,2.33,0,0,0,185,654a23.53,23.53,0,0,0-6.15.55c-.1-.06.1,4.43-.28,4.3-1.64.87-.82,1-2.36,2.33a2.27,2.27,0,0,1-1.61-.31,10,10,0,0,0-1.4.66c-1.14-.33-1.2-.69-1.2-.69s-.77-.23-2.89.89c-4,2.72-5.43,1.53-5.63,1.63a2.86,2.86,0,0,0-.66,1c-.09.26-2.69-.07-2.76-.07a17.89,17.89,0,0,0,0,3.42c.16.26-2,2.1-2.07,2s-.72,1-.34,1.4a1.47,1.47,0,0,0,1.4.43c.26-.15.84.46.84.46a2.2,2.2,0,0,0,1.52,0l.12-.55c.33-1.95.84-2.63,1.44-2.62a4.42,4.42,0,0,1,1.72.59c.65-1.09,1.27-1.68,1.87-1.84-.29-.3,1-.94,1.33-.36,0-.43,2-2.52,2.81-1.59.79.39.61,3.44-.66,3.59-.35,0,.16,2.35.16,2.35s-2.23.46-1.68.89-3.16,3.24-3.16,3.24a7.55,7.55,0,0,1-2.78,1.14c-2.85,2.3-3,3.39-3,3.39a3.17,3.17,0,0,0-2.82.83,2.77,2.77,0,0,0-1,2.26l-1.25,0a3.53,3.53,0,0,1-2.27-1.13c0,3.59-1.71,4.76-2.76,6-.28-1-1.61-.9-1.61-.9s.3,1.8-.27,2c-1.09-1.48-3.28-1.6-4.49-1.87s-1.72,2.81-1.72,2.81a2.27,2.27,0,0,0,2.7,1.05,1.82,1.82,0,0,1-1.06,1.29c-3,.57-3.08,2.44-3.08,2.54a9.14,9.14,0,0,0,1,1.37c-.7,1.24-4,3.08-5,3.51s-1.17,2.38-1.17,2.38-.47.58-4.8-1.45c-.11-1.4-.95-1.19-.82-1.28-.64-.51-2.1.82-4.18,1.17-1.38-.44-3.72-.3-6-.28-2.16-.64-3.52-.56-4.39-.2-1.32.54-1.54,1.68-1.78,1.88a4.22,4.22,0,0,1,1.92,1.21,16,16,0,0,0-3.91,4.77c-3.57,1.53-2.42,2.23-2.3,3.24-3.71,2.14-4.68,4.23-7.58,7.14-.31,4-3.42,5-5.78,4.18,1.35-3-.3-3.47-1.47-3.76a2.66,2.66,0,0,0-.56-2.92c.91-1.64,1.28-3.72.41-4.47A4.42,4.42,0,0,0,89,714.2s-1.49-.28-1.64-.12a4.62,4.62,0,0,1-3.25.74c-3.39-.43-4.09-2.3-4.09-2.3a4.35,4.35,0,0,0,.35-2.62s-1.18-1.64-2.27-2.85c-.31-2.07-.93-1.84-1.28-2.34s-1.57.35-2.23-.43,0-3,0-3l-.86-1.48a5.53,5.53,0,0,0,.27-2C74,696,72.82,696,72.59,696a20.24,20.24,0,0,1-2.11-.31,34.66,34.66,0,0,1-1.25-3.52c.62-2,.08-2.42.08-2.42s-4.69-5.81-4.45-6.71-5.43-.28-5.47-.59.2-.66-1.29-.51c-1.48-1.05-.19-1.6-.19-1.6.5-1.19.07-2.11.35-2.57a2.27,2.27,0,0,0,.19-2.89c-1.75-2.42-2.22-2-1.32-4.14a7.18,7.18,0,0,1-.71-4.18s.24-.08-.9-1.33-.85-2.5-1.32-3.35-2.31-.71-2.31-.71c-.49-.08-1.73-2.53-2.34-4.92,2.27-1.29,2.54-2.1,2.54-2.1a.88.88,0,0,1,.47-1.1c.74-.35.74.43,1.33,1.21,1.21.28.93-.39.46-2.11a25.4,25.4,0,0,1,9.1-5.31s2.58,3.17,3.79,2.35c-1-5,1.83-2.46,1.83-2.46s1.37,2.07,1.76,1.24a17.87,17.87,0,0,1,.08-2c.16-.53.79-.83,1.64-1a15.49,15.49,0,0,1-.39-2.5c4.37,1.6,3.47-.27,4.57-.51s-1.57-3.39-1.57-3.39c.48-.83,1.47-1,2.62-.9A1.24,1.24,0,0,0,77.7,636c-.9-1.91.43-2.22.35-2.34,1.66-1.41-.41-1.73,2.24-3.44a1.24,1.24,0,0,0-.44-1,4.46,4.46,0,0,0-1.95-1.52s-2.08-10.74-7-10.39c-4.71.33-3.63,4.86-4.45,5.11-.61.19-3.05.76-2.93,1.17s-2.87,2.06-3.55-2.81c-4.81-8.9-11.29.32-12.69-.23-.78-2.07-1.29-1.6-1.29-1.6a8.32,8.32,0,0,1-1.72,1.76c-.19,1.36-2.5,2.49-3.28,1.32s-.35-1.75-2.69-1.29-2.66.83-4.26-.23-2.54.32-3.4.2-1-1.49-3.27-1.72-1.56-1.52-1.53-1.95-1.95-2.39-1.95-2.39a12.38,12.38,0,0,0-.08-3c-3.67-5.51-5.38,3-5.38,3l-4.22,1.91c-1.07-.12-5.23,1.44-8.83,4.49-1.77-2.74-2.16-2.26-2.16-2.26l-2.6-3a26.83,26.83,0,0,0,1.82-5.18c.49-3.93,4.14-6.59,4.14-6.59,1.2-1.69-.18-1.27.5-3.8-1.25-1.74-1-2.5-1-2.94s-.94-.65-1.2-.86c-5.15-3.38-.57-5.13-.57-5.13a5.84,5.84,0,0,0,3.22-5.41c-.65-5.52-1.27-4.27-2.83-5.49s-2-3.85-.76-6.56c2.37-.78,13.9-12,4-11.77-2,1.09-2.61.73-2.61.73a2.35,2.35,0,0,1-1.64-1.33,9.61,9.61,0,0,0-.07-3.43s-4-3.83,4.37-5.49c10-2,12.32-6,12.39-6.09h0a1.72,1.72,0,0,1,1.87.39c2.62-.91,3.21-2.23,3.3-3a1.74,1.74,0,0,0,0-.71c.07-.92-3.28-3.25-2-6.68-.23-3.21,3.18-4.44,3.16-4.79s.09-2.44.09-2.44,4.39-3.53,3.7-4.26-.51-1.3-.51-1.3c-.25-.53,2.5-2.11,2.32-2.84-.11-2.16-.21-2.21.43-3.52,0-1-2.08-1.9-2.08-1.9-1-.75-1.29-2.77-1.42-4.66A31.78,31.78,0,0,0,25,507.05s-.3-.09-.49-.75c.13-1.07,1-1.77,1-2.73-.24.1-1.39-.72-1.51-1.15,2.57-6.91,1-5.26-.69-7.23a1.67,1.67,0,0,1-1-1.57c-.13-.41,1.94-2.82,1.66-4-.73-1.26-1-1.65-2.05-1.74-.93-.72-.78-2.63-.78-2.63a1.5,1.5,0,0,0,.23-1.91c-.17-.51-1.08-2.82-.52-3.7-1-2.32,2.1-2.52,1.89-2.71a6.73,6.73,0,0,1-.46-1.61c-.41-.34,3-.11,3-.11a3.68,3.68,0,0,0,.39-1.49A3.43,3.43,0,0,0,23.2,472a1.52,1.52,0,0,1-.71-1.23c5-2.92,3-5.12,2.81-5.21.15-.53-5-2.74-5.31-5.22a14.56,14.56,0,0,0,2.22-2.14s0-2.35,1.19-3.16c1.78-1,1.83-1.29,1.83-1.33a17.46,17.46,0,0,1,.59-2.16c1.72-2.11-.5-2.2-1.72-2.13s-.71-1.49-.71-1.49l2.3-2.29c-.06.06.37-4.21-.07-4.72.09-.26,1.23-2.76,1.23-2.76a17.17,17.17,0,0,0-.27-3c.72,0,3.71-1.16,3.94-2a30.24,30.24,0,0,0,7.08-4.07,2.71,2.71,0,0,1,3.4-.17,15.13,15.13,0,0,0,5.09-.87c3.54.86,2.28,1.78,2.38,4.63-.31,2.4.41,4.62.86,4.77A27.74,27.74,0,0,0,53,437.3a2.9,2.9,0,0,1,1.76-1.1c5.11.72,4.69.08,5.59.15a6.64,6.64,0,0,0,3.36-.68,3.91,3.91,0,0,1,1.57-.54,7.05,7.05,0,0,1,2.18-.08c1.14-.54,3.33,0,3.33,0,1.11.14,3.42-.62,5.36-1,.69-.94,5.77-1.37,5.77-1.37,2.31-.91,4.46-3.2,4.8-3.4.14-1.41-1-4.49-.91-4.91-.12,0-1.78-1.82-1.7-2.34s-1.39-3.23-1.32-4c1.34-1,3.61-.47,4-.49s.73,2.42.73,2.42,8.93.32,10.23.3c.44-.61.23-2.93.15-3.56.28-1.31-3.07-4.36-2.55-5.59a6.72,6.72,0,0,0,.55-2.15c.52-.92.55-3.42-1-3.45-1.33-2.19-.89-3.32-.89-3.32s-1.1-1.83-.48-2.51c1.71-3.22,2.42-3.36,3.45-3.84a7.06,7.06,0,0,1,3.19-1.12s-.09-1.2-.07-1.69c5.24,4.95,6.71,2.65,6.71,2.65s-1.34-5-1.51-5.8c.61-3.61-1.26-5.34-1.26-5.34s-3-.73-4-.87a6.73,6.73,0,0,1-.52-2.64,23,23,0,0,0-2.19-2.8l1.59-.75.09-2.84a1.77,1.77,0,0,0,.13-2.13,27.63,27.63,0,0,1-1.47-3.37,4.3,4.3,0,0,1,1.68-1.28c.08-.29,3-.7,4.19-.48.27-.29,1.37.95,2.11.83,4-2.16,5.55-.7,5.8-1.09a10.71,10.71,0,0,1,5.52.36,6,6,0,0,0,2.32,1,27.29,27.29,0,0,0,4,.27c2.68,1.48,3.61,1.6,4.85,1.49.47,0,3.84,1.78,5.38,1.85,1.46,1.18,1.79,5,1.79,5s3.76,3.6,5.12,3.55a11.21,11.21,0,0,1,3.6.93s1.58,2,2.29,1.31a12.25,12.25,0,0,0,1-6.89c.14,0,.57-4,.84-6a5.08,5.08,0,0,1,.33-2.47,56.74,56.74,0,0,0-.45-7.74c-.55.28-1.13-10.69-1.13-10.69a6.35,6.35,0,0,0-2-5.24,12.15,12.15,0,0,0-1.65-1.4c-1.72-11.56,7.69-15.58,7.69-15.58a5.52,5.52,0,0,0,.27-2.69,1,1,0,0,1,.55-1.33,12,12,0,0,1,.66-3.48c1.76-2.65,1.87-2.53,2.34-2.22,1.33-.66,1.29-1.6,1.29-1.6a1.25,1.25,0,0,0,1.37-.74A28.81,28.81,0,0,0,160,312a4.72,4.72,0,0,1,1.17-2.49,7.44,7.44,0,0,1,0-2.89,13.89,13.89,0,0,1,3.51-3.68s.87-1.32,1.84-3c1.48-2.51,3.29-5.81,3.31-6.61a7.52,7.52,0,0,1,.9-3.44s-.62-1.56-3.24-2.14c-5.19.11-5.5-7.46-5.5-7.46a3.84,3.84,0,0,0-1.09-2.62c-5.47-3.74-7.58-2.18-8-3.12a19.7,19.7,0,0,1-.82-3.4c.52-.4-1.2-1.31-4.37-.81-.16,2.26-2.23,5.07-2.23,5.07l-3.67-1.25s-1.75.35-6.79.78a14.7,14.7,0,0,0-3.79-2.11s-.43-1-.35-4.56a3,3,0,0,1-2.58-1.33,5.89,5.89,0,0,0-1.44-6.49c-3.46.14-6-.64-6.33-2.06-1.23-1.06-1.32-.75-2.69-.91-.67-.17-7.94,2.55-8.25,2.44s-2-1.9-2.11-1.71c-.78.05-2.21,2.13-5.2,3.12-5.18-.11-5.44,1.31-5.44,1.31a19.6,19.6,0,0,1-5.08,6.54,29.24,29.24,0,0,1-5.46.31,5.68,5.68,0,0,0-3.39,1.16,6.3,6.3,0,0,0-3.2.47c-1.64-.93-3.35-3.14-5.39-3.9-2.6.15-4.35.38-6.2.58a3.58,3.58,0,0,0-2.22-1,6.52,6.52,0,0,0-3.09-.66c-.42-.74-2.47-3.51-6.83-1.54-3.28-3.4.77-8.75.59-10.78s.57-4.2.62-5.08,2.06-1.67,1.22-1.59-1.56-2-1.56-2a4.87,4.87,0,0,1,.29-.81c-.6-.29-.55-2.81-.7-3.59-.46-.9-1.58-4.58-1.25-4.87.12-.11,2,.08,2.42-.18,1.84-1,1.56-8,2.52-8.8a24.86,24.86,0,0,1,.16-8.67c.68-5.52-.49-4.29-.49-4.34a5.53,5.53,0,0,1-3.86,0c-.31.2-2-2.36-2.42-2.42-1-.14-2,.78-1.87.31,0-.28-1.9-.46-1.9-.46a5.23,5.23,0,0,1-2.87-.91c-1-1.7-1.64-1.75-2.05-1.51s-2.47.78-2.16-.37c-.39-1.8-2.61-1-3-.86a4.67,4.67,0,0,0-2.13-.07c-1.49.91-1.93.13-2.66-.22s-1.17-.07-1.22-.26.24.66-3.51,0c-1.8-1.17-2-.78-2.16-.88s-2-.81-2-1.72-.08-2.08.45-2.23c.93-.19,1.32-2.77,1-3.21s1.48-3.38-.39-6-2.14-8.75-2.14-8.75-1.22-.62-3.28-4.79c.13-5.36.16-14-.52-15,0-.68-1.43-5.92.13-6.2s5.36,3,6.2,3a7.19,7.19,0,0,1,2,.44s0,.38,1.22,1.41a29.92,29.92,0,0,0,3.7.09c2.49-.22,2.73,0,3.29.38A58.81,58.81,0,0,1,40,155.49a2.81,2.81,0,0,1,.91-1.14c9.08-1.41,9.92,0,9.92,0l2-.11,0-1.61s.91-1.28.81-1.54c1.87-5.05-.81-7.75-1.31-8.2,0-.52.91-7,.31-7.49-5.31-3.91-2.88-10-3.17-10.54s-2.55-5.47-3.26-6.17c-.8,0-1.19-.86-1.35-1.07-.62.21-2.29-2.16-2.44-3.33a4.39,4.39,0,0,0-.78-4,9.39,9.39,0,0,1-2.5-2.68,11.09,11.09,0,0,0-2.32-2.81,6.91,6.91,0,0,0,.47-2.92,6.09,6.09,0,0,0-.89-6.58s-1-1.51-.52-2.37c.86-1,1.17-5-.78-5.54-2.11-3.7-4.21-5.78-5.65-6-2.31-2.47-6.4-2.89-6.53-3a5.3,5.3,0,0,0-2.37-1.14,19.75,19.75,0,0,0-3.46-.34s-1-1.37-1-1.1c-.61-3.28-1.64-2-2.87-4.21L11.5,71S9,70.9,9.6,69.57c.65-.86,2.37-2.58,2.55-4.37-.08-.6.83-.58,2.31-3.7.39-2,1.41-5,1.77-4.68.94-1.9,1.18-2.19,2.48-2.24s1.58-6.95,2-7.27a20.55,20.55,0,0,1,3.1-1.82s.1-1.4.15-3.28a35.12,35.12,0,0,0-.44-7.52,9.8,9.8,0,0,1-2.68-4.4c-.07-.36.55-3.88.78-3.75a6.82,6.82,0,0,1,0-3.43,4.65,4.65,0,0,1,.46-1.38c.32-1,1.45-1.64,1.69-3.1a5.84,5.84,0,0,1,1.31-3.15,6.92,6.92,0,0,0,0-1.82,4,4,0,0,0-2.61-.1,13.19,13.19,0,0,1,0-7.53q1.07,0,2.22.21c.91.68,3.38.58,7.23.44a4.9,4.9,0,0,0,2.61-1.33,2.45,2.45,0,0,0,2.13-1.22c.52,0,.83-1.92,2.45-2.52.5.63,1.68.8,3.67.44,2.18,1.54,3.66,2.1,5.54,1.38,3.33-.21,2.66-.23,3.1,1.38,0,0,1.17,1,.34,1.59-.58,2.6,1.58,2.44,1.58,2.44,2.09-.18,3.65-1.58,5.5-1.69a32.19,32.19,0,0,0,4.11-.6c1.13.23,2.65-.57,4.5-2.21C69.26,3.9,69.49,1,72.33.93c1.54-.85,3-.42,4.5,1,2.56,1.38,5.28,2.11,7.68,3.28,0,0,4.16.45,6.32-1.56,5.6-1.61,5.81,1.85,5.81,1.85.44.25,1,.61,1.82,1.14,9,.71,11.71-.83,13.9.32,2.51,2.8,2.53,2.55,6.84,2.86,2.29-1.69,4,0,4.61-.42a18.62,18.62,0,0,1,2.79-.62,6.68,6.68,0,0,1,3.82-1s1-.45,4.74,2.34c7.06,4.11,6.38-1.2,6.38-1.2,6.27.05,3.88-1.25,7-1.77,1.32-.34,3.53,4.56,6.19,5.49,2-1,3-.54,3.15-.28l3,0a13.08,13.08,0,0,0-.18-3.91c2.86-5,2,.29,7.8.91,1.62,0,7.1-1.18,7.55-.91,3.91,1.72,3.65,2.6,6.53,3.18,0,0,0,4.21,3,.73,7.24,5.07,11.43,4.47,11.43,4.47,6.19-4.32,4.68.57,8.46.11,2.21-1.49,5.9,2.22,6.5,1.69a2.73,2.73,0,0,0,1.52-1,45.78,45.78,0,0,1,7.23,2.06,42.51,42.51,0,0,1,0,4.27,8.13,8.13,0,0,1,1.09,2.63,20.33,20.33,0,0,0,.21,4.22c1.54,2.23.68,3.48.68,6s.3,3.52.75,3.66.76,1.67,1.15,2.45a16.44,16.44,0,0,0,1.28,1.49,6.5,6.5,0,0,0,1.23,3.39c-.27,1.82.23,2.28.23,2.28s.84-.46.67.67a3.1,3.1,0,0,0,.77,2.17A2.69,2.69,0,0,0,230.36,55c1.47-.62,1.49.48,1.49.48q2.31,2.45,4.37,4.75a24.39,24.39,0,0,0,4.88.08,6.06,6.06,0,0,0,3,1.7l.48,1c-.51.1-.17,1.87-.32,2.76s-.59.83-2.29,1.3-.42,2.89-.42,2.89,1-.38,3.24,1.65a11.49,11.49,0,0,1,6.91-.81c0,.1.43.18,1,.24a30.2,30.2,0,0,0,4.43.17c.1.11,2.44.56,2.57.84.49-.08.83,7.95.86,8.42s1.16,2.64,2.34,2.45c1.58-.3,1.81,0,1.81,0,2,.71,2.54,1,2.48,2.9a3.64,3.64,0,0,1,1.18,2.13c.06,0,0,.61,0,.61l.45.53a3.59,3.59,0,0,0,0,1.07c1.17,2.24.83,2.35.71,3.37a1.87,1.87,0,0,1-.52,1.31l0,1.49s.3.79.42,1.26c.9.4.31,3-.89,3.45a1.5,1.5,0,0,1-.43,1.66c1.07.91,1.36,2,1.19,2a28.66,28.66,0,0,0,1.91,3.27,4.21,4.21,0,0,1,2.15.5s.77.47,3.14.21c3,.84,3.59.06,3.59.06a5.78,5.78,0,0,0,3-.26c1.55-.15,1.45-1.14,1.45-1.14l1.6-.73c0-1.71,2.47-1.34,2.47-1.34s2,1.56,2.67,2c2.06-1,1.91,0,1.91,0a1,1,0,0,1,.79,0c.66,1.27,1,1.12,1.45,1.19s1.26.32,1.26.32a5.29,5.29,0,0,1,1.34.53s-.09.26.34.56c1.53-.54,2,.06,2,.06.62-.72,1-.15,1-.15a10.56,10.56,0,0,0-.07,1.4c0,.39.6.13.6.13l.77,1-.7.76a1.06,1.06,0,0,1,.34.47,5.75,5.75,0,0,1-.16,1.47c0,.12.87,1.11.87,1.17a3.8,3.8,0,0,0,0,.58s.75.74.88.91a21.74,21.74,0,0,0,4.11-2.13,10.27,10.27,0,0,1,1.58-1.24,9.81,9.81,0,0,1,1.6-.85s3.29-2,2.66-2.3-.28-2.51-.28-2.51a31.54,31.54,0,0,0,.18-3.71c1.19-.65,2.09-.78,2.83-1.89a1.08,1.08,0,0,1,.73,0,2.15,2.15,0,0,1,1-.76h1.55s1.43-.24,3.25-.35a2.72,2.72,0,0,1,1.66-.58,5.28,5.28,0,0,0,1.77-1.78c1.61-2.09.84-2.84,3.6-.53a31.55,31.55,0,0,1,4.52-.36,10.52,10.52,0,0,0,3.52,2.74c2.78-1.29,3.62-.31,3.81-.11,1.74.2,2.93-.23,3.59,0,.43,0,1.32,1.62,4.1,3.39a8,8,0,0,1,4.51,1.2,3.94,3.94,0,0,0,2.37.61c.47-.47,2.58.7,4-.39l.12-.22c.66-1.26,1.34-2.51,2.07-3.77.24-1.63,1.46-2.38,3.39-2.49a11.92,11.92,0,0,1,7-1.72,9.07,9.07,0,0,1,1.88-1.6c1.91.62,3.77,2.06,5,2.46,1.79.26,3.87.5,6.32.7,3.87-1,4.65-.51,6.41,1.64.23,2.69,1,4.56,1.91,4.33a11.13,11.13,0,0,0,5.82-.93,24.29,24.29,0,0,1,3.63,3.78c1.22,6.09,3.66,11.28,7.92,15.11h.42l2.94,0c1.43-.4,2.2-1.16,2.34-2.26l3.83-.39a7.57,7.57,0,0,1,6.83-.86c3.09-.86,4.53-3.43,8.28-2.93,5,.13,8.51,3,10.7,8-.67,5.81-4.84,8.39-5.06,9.62.27.12-2.06,3.1-2.77,3.81s0,5,0,5c1.28.63,1.77,2.9,1.42,6.9,3.3.06,5.1.6,8.65,3.76a21.23,21.23,0,0,1,6.68,6.78,9.08,9.08,0,0,0,3.75-.34c2.79-1.13,2.59-2.08,3.79-1.89a7.79,7.79,0,0,0,3,.31,3.87,3.87,0,0,1,1.64-2c.3-.9,0-1.44,1.52-2.32,4-.35,4.47-2.13,6.78,2.75a24.17,24.17,0,0,1,4.08.92c4.57,2.64,1.58,2.07,7.16,4.68,2.5,1.71,3.56,3.36,6,4.52,2.53-1.34,4.33-1.91,4.39-.69,2.64,1.48,4.67,1.72,6,.53,2.74-1.62,5.42-2.85,6.54-2.05a8,8,0,0,0,6.2.67c3-2.24,4.42-4.76,5.85-4.69,2.28-1.85,2.44-1.76,4.77-1.24a6.08,6.08,0,0,1,2.91.07,24.32,24.32,0,0,1,3.88,1.12,13.31,13.31,0,0,1,4,.5,3.76,3.76,0,0,1,4.17,2.36,6.25,6.25,0,0,1,3.92,5.16,18.77,18.77,0,0,1,2.58,4.53,21.07,21.07,0,0,1,0,3.64A8.48,8.48,0,0,0,547.05,179.26Z"/>
  </g>
</svg>
