<svg width="24" height="24" viewBox="0 0 24 24" fill="none" xmlns="http://www.w3.org/2000/svg">
  <rect width="24" height="24" rx="6" fill="#EFF4FF"/>
  <path
    d="M10.6667 13C10.6667 12.6318 10.9651 12.3333 11.3333 12.3333H12.6667C13.0349 12.3333 13.3333 12.6318 13.3333 13C13.3333 13.3682 13.0349 13.6667 12.6667 13.6667H11.3333C10.9651 13.6667 10.6667 13.3682 10.6667 13Z"
    fill="#528BFF"
  />
  <path
    fill-rule="evenodd"
    clip-rule="evenodd"
    d="M6.33333 6C5.59695 6 5 6.59695 5 7.33333V14C5 14.7364 5.59695 15.3333 6.33333 15.3333H9.66667V17H8.66667C8.29848 17 8 17.2985 8 17.6667C8 18.0349 8.29848 18.3333 8.66667 18.3333H15.3333C15.7015 18.3333 16 18.0349 16 17.6667C16 17.2985 15.7015 17 15.3333 17H14.3333V15.3333H17.6667C18.403 15.3333 19 14.7364 19 14V7.33333C19 6.59695 18.403 6 17.6667 6H6.33333ZM13 17V15.3333H11V17H13ZM17.6667 14V7.33333H6.33333V14H17.6667Z"
    fill="#528BFF"
  />
  <path
    fill-rule="evenodd"
    clip-rule="evenodd"
    d="M17.6666 7.33325V13.9999H6.33331V7.33325H17.6666ZM10.6666 12.9999C10.6666 12.6317 10.9651 12.3333 11.3333 12.3333H12.6666C13.0348 12.3333 13.3333 12.6317 13.3333 12.9999C13.3333 13.3681 13.0348 13.6666 12.6666 13.6666H11.3333C10.9651 13.6666 10.6666 13.3681 10.6666 12.9999Z"
    fill="#D1E0FF"
  />
</svg>
