<svg width="72" height="72" viewBox="0 0 72 72" fill="none" xmlns="http://www.w3.org/2000/svg">
  <g clip-path="url(#clip0_900_9629)">
    <rect width="72" height="72" rx="36" fill="#F5C7BD"/>
    <g clip-path="url(#clip1_900_9629)">
      <path
        d="M50.7489 55.4178C48.1514 53.3409 46.872 49.6744 46.3901 47.2984L47.2541 45.4541C48.9988 46.5618 54.3046 48.539 55.8886 51.48C57.4726 54.4209 56.7194 57.8049 56.1711 59.4166C55.0191 57.2732 53.352 57.5003 50.7489 55.4178Z"
        fill="#271515"/>
      <path
        d="M50.7489 55.4178C48.1514 53.3409 46.872 49.6744 46.3901 47.2984L47.2541 45.4541C48.9988 46.5618 54.3046 48.5335 55.8886 51.48C57.4726 54.4264 56.7194 57.8049 56.1711 59.4166C55.0191 57.2732 53.352 57.4947 50.7489 55.4178Z"
        fill="#271515"/>
      <path
        d="M19.8608 55.977C22.4583 53.8946 23.7377 50.2281 24.2196 47.8521L23.3556 46.0078C21.6165 47.1155 16.3051 49.0927 14.7266 52.0337C13.1482 54.9746 13.8903 58.3641 14.4386 59.9703C15.5906 57.8269 17.2633 58.054 19.8608 55.977Z"
        fill="#271515"/>
      <path
        d="M19.8608 55.9715C22.4583 53.8946 23.7377 50.2281 24.2196 47.8521L23.3556 46.0078C21.6165 47.1155 16.3051 49.0927 14.7266 52.0337C13.1482 54.9746 13.8903 58.3586 14.4386 59.9703C15.5906 57.8269 17.2633 58.054 19.8608 55.9715Z"
        fill="#271515"/>
      <path
        d="M16.3386 29.6363C14.7879 36.504 18.554 43.3883 20.4925 46.2517C20.4925 46.2517 26.0309 54.0055 33.7848 46.2517C41.5386 38.4978 39.8771 48.4671 39.8771 48.4671C43.754 48.4671 48.7386 48.1901 49.5694 46.2517C59.8156 26.3132 47.4648 15.8566 36.3879 15.0258C25.3109 14.1951 18.2771 21.0517 16.3386 29.6363Z"
        fill="#311B1B"/>
      <path fill-rule="evenodd" clip-rule="evenodd"
            d="M44.114 59.8208C44.114 59.8208 54.0334 61.5156 56.4925 64.9605C58.3146 67.2202 60.6463 73.9993 60.6463 73.9993H11.354C11.354 73.9993 12.2955 68.4608 14.954 64.9605C18.0002 61.1334 29.0771 59.8208 29.0771 59.8208H44.114Z"
            fill="white"/>
      <path fill-rule="evenodd" clip-rule="evenodd"
            d="M29.1876 57.6057C19.9384 59.3447 16.3384 63.1441 16.3384 63.1441C18.9175 64.7712 21.413 66.5273 23.8153 68.4057C28.523 72.0057 34.0615 77.5441 35.723 79.2057C37.1076 77.8211 43.0781 71.1251 45.9691 68.9595C48.4037 66.4323 51.2042 64.2852 54.2768 62.5903C50.1089 60.5138 45.7502 58.8445 41.2615 57.6057C40.5636 57.3343 38.2707 56.9521 35.1691 57.002C33.1591 56.9807 31.1529 57.1831 29.1876 57.6057V57.6057Z"
            fill="#2B4179"/>
      <path fill-rule="evenodd" clip-rule="evenodd"
            d="M29.1876 57.6057C19.9384 59.3447 16.3384 63.1441 16.3384 63.1441C18.9175 64.7712 21.413 66.5273 23.8153 68.4057C28.523 72.0057 34.0615 77.5441 35.723 79.2057C37.1076 77.8211 43.0781 71.1251 45.9691 68.9595C48.4037 66.4323 51.2042 64.2852 54.2768 62.5903C50.1089 60.5138 45.7502 58.8445 41.2615 57.6057C40.5636 57.3343 38.2707 56.9521 35.1691 57.002C33.1591 56.9807 31.1529 57.1831 29.1876 57.6057V57.6057Z"
            fill="#2B4179"/>
      <mask id="mask0_900_9629" style="mask-type:alpha" maskUnits="userSpaceOnUse" x="16" y="56" width="39" height="24">
        <path fill-rule="evenodd" clip-rule="evenodd"
              d="M29.1876 57.6057C19.9384 59.3447 16.3384 63.1441 16.3384 63.1441C18.9175 64.7712 21.413 66.5273 23.8153 68.4057C28.523 72.0057 34.0615 77.5441 35.723 79.2057C37.1076 77.8211 43.0781 71.1251 45.9691 68.9595C48.4037 66.4323 51.2042 64.2852 54.2768 62.5903C50.1089 60.5138 45.7502 58.8445 41.2615 57.6057C40.5636 57.3343 38.2707 56.9521 35.1691 57.002C33.1591 56.9807 31.1529 57.1831 29.1876 57.6057V57.6057Z"
              fill="#2B4179"/>
      </mask>
      <g mask="url(#mask0_900_9629)">
        <path fill-rule="evenodd" clip-rule="evenodd"
              d="M17.8948 58.4697L18.1883 58.6193C24.8767 62.3368 30.7329 67.3845 35.3963 73.4513C36.0298 72.4911 36.7511 71.5919 37.5508 70.7651C38.7194 69.5134 40.1705 68.1288 41.7047 66.7442C44.773 63.975 48.2013 61.2057 50.4222 59.4943L50.533 59.4057H56.1102L55.0745 60.159C52.7317 61.8593 48.9434 64.7725 45.2216 67.9793C41.4997 71.186 37.8554 74.6753 35.8062 77.511L35.3133 78.1867L35.0696 77.3891C34.7705 76.3756 33.84 75.074 32.4665 73.6063C30.8839 71.9647 29.1967 70.4274 27.4154 69.0039C23.8834 66.1436 20.2026 63.4722 16.3883 61.0008L15.9951 60.746L17.8948 58.4697ZM18.1053 59.5165L17.2357 60.5577C20.9441 62.9746 24.5266 65.5792 27.9693 68.3614C29.771 69.8092 31.4785 71.3705 33.0813 73.0359C34.0675 74.0443 34.9032 75.1896 35.5625 76.4365C37.7447 73.6673 41.1951 70.3442 44.6788 67.359C47.9188 64.5897 51.2087 61.9977 53.5404 60.2476H50.821C48.6056 61.959 45.2825 64.6783 42.2585 67.3756C40.7354 68.7491 39.3065 70.1171 38.16 71.3467C37.2428 72.2543 36.4562 73.2851 35.8228 74.4094L35.5237 75.0463L35.1084 74.4925C29.5588 66.7774 21.6443 61.3996 18.1053 59.5165V59.5165Z"
              fill="white"/>
      </g>
      <path
        d="M27.6924 60.6514C28.5231 58.9899 31.2924 58.436 31.2924 58.436H39.0462C39.0462 58.436 42.9231 58.9899 42.9231 60.9283C42.9231 62.8668 35.4462 72.2822 35.4462 72.2822C35.4462 72.2822 26.8616 62.313 27.6924 60.6514Z"
        fill="white"/>
      <path fill-rule="evenodd" clip-rule="evenodd"
            d="M30.4946 53.8613C30.4946 53.8613 31.5414 57.8103 30.4946 60.5075C30.4946 61.7703 30.7716 63.8693 35.446 63.9856C40.1205 64.1019 40.0042 60.5075 40.0042 60.5075C40.0042 60.5075 39.1236 58.1259 39.3008 53.8613C36.3729 54.1588 33.4225 54.1588 30.4946 53.8613V53.8613Z"
            fill="#FFCABC"/>
      <path fill-rule="evenodd" clip-rule="evenodd"
            d="M30.4951 53.8617C30.4951 53.8617 30.8053 59.234 30.4951 60.5078C30.185 61.7817 30.617 64.5841 35.4465 64.8057C40.276 65.0272 39.9991 60.4967 39.9991 60.4967C39.9991 60.4967 39.124 58.1152 39.3013 53.8506C36.3738 54.1518 33.4233 54.1555 30.4951 53.8617V53.8617Z"
            fill="#FFCABC"/>
      <path
        d="M16.3386 29.6364C14.7879 36.5041 18.554 43.3884 20.4925 46.2518C20.4925 46.2518 26.0309 54.0056 33.7848 46.2518C41.5386 38.4979 39.8771 48.4672 39.8771 48.4672C43.754 48.4672 48.7386 48.1903 49.5694 46.2518C59.8156 26.3133 47.4648 15.8512 36.3879 15.0204C25.3109 14.1896 18.2771 21.0518 16.3386 29.6364Z"
        fill="#271515"/>
      <path
        d="M51.8247 43.9062C53.6836 43.3022 54.6955 41.2891 54.0849 39.4098C53.4743 37.5305 51.4723 36.4967 49.6134 37.1007C47.7545 37.7047 46.7426 39.7178 47.3532 41.5971C47.9638 43.4763 49.9657 44.5102 51.8247 43.9062Z"
        fill="#FFCABC"/>
      <path fill-rule="evenodd" clip-rule="evenodd"
            d="M52.3827 39.6611C52.4694 39.6537 52.5496 39.6122 52.6057 39.5458C52.6617 39.4793 52.6891 39.3933 52.6818 39.3066C52.6744 39.2199 52.633 39.1397 52.5665 39.0836C52.5 39.0276 52.414 39.0002 52.3273 39.0075C51.3971 39.1712 50.5637 39.6819 49.9956 40.4364C49.7621 40.7057 49.5475 40.9906 49.3532 41.2894L49.1815 41.5441L49.1372 41.6217C49.1224 41.6911 49.1302 41.7633 49.1595 41.828C49.1888 41.8926 49.2379 41.9461 49.2998 41.9808C49.3617 42.0154 49.4331 42.0294 49.5035 42.0206C49.5738 42.0118 49.6396 41.9807 49.691 41.9318V41.9318L49.7409 41.8432L49.8959 41.594C50.0621 41.3211 50.2471 41.0601 50.4498 40.8131C50.5052 40.7466 50.5605 40.6857 50.6215 40.6248C50.7496 40.6697 50.8737 40.7253 50.9925 40.7909C51.3601 40.966 51.6445 41.2782 51.7845 41.6604C51.8168 41.7403 51.8783 41.8049 51.9565 41.8409C52.0348 41.8769 52.1238 41.8817 52.2055 41.8543C52.2464 41.84 52.2841 41.8178 52.3163 41.7888C52.3486 41.7598 52.3748 41.7248 52.3933 41.6856C52.4119 41.6464 52.4224 41.6039 52.4244 41.5606C52.4264 41.5173 52.4198 41.4741 52.4049 41.4334C52.2117 40.9335 51.8464 40.5191 51.3747 40.2648L51.1975 40.1706C51.5386 39.8957 51.9485 39.7195 52.3827 39.6611V39.6611Z"
            fill="#C26B6B"/>
      <mask id="mask1_900_9629" style="mask-type:alpha" maskUnits="userSpaceOnUse" x="30" y="53" width="11" height="12">
        <path fill-rule="evenodd" clip-rule="evenodd"
              d="M30.4951 53.8617C30.4951 53.8617 30.8053 59.234 30.4951 60.5078C30.185 61.7817 30.617 64.5841 35.4465 64.8057C40.276 65.0272 39.9991 60.4967 39.9991 60.4967C39.9991 60.4967 39.124 58.1152 39.3013 53.8506C36.3738 54.1518 33.4233 54.1555 30.4951 53.8617V53.8617Z"
              fill="#FFB5A1"/>
      </mask>
      <g mask="url(#mask1_900_9629)">
        <path
          d="M39.8768 58.9903C34.6153 59.5441 31.846 57.3287 31.2922 56.221C30.9443 55.5111 30.6661 54.7692 30.4614 54.0056C33.5076 53.6346 39.7107 52.8979 40.1537 52.8979C40.7076 52.8979 45.1383 58.4364 39.8768 58.9903Z"
          fill="#FFB39F"/>
      </g>
      <path
        d="M22.5126 42.1498C23.1232 40.2705 22.1113 38.2574 20.2524 37.6534C18.3935 37.0494 16.3915 38.0832 15.7809 39.9625C15.1703 41.8418 16.1822 43.8549 18.0412 44.4589C19.9001 45.0629 21.902 44.029 22.5126 42.1498Z"
        fill="#FFCABC"/>
      <path fill-rule="evenodd" clip-rule="evenodd"
            d="M17.8119 40.2145C17.769 40.2105 17.7273 40.1981 17.6892 40.178C17.651 40.1579 17.6173 40.1305 17.5897 40.0973C17.5342 40.0303 17.5075 39.944 17.5156 39.8573C17.5237 39.7706 17.5658 39.6907 17.6328 39.6352C17.6998 39.5796 17.7861 39.5529 17.8728 39.561C18.806 39.7247 19.6429 40.2351 20.2156 40.9899C20.4457 41.2605 20.6585 41.5453 20.8525 41.8428C20.93 41.9591 20.9854 42.0588 21.0242 42.1253C21.063 42.1918 21.0574 42.1862 21.0685 42.2028C21.0897 42.2405 21.103 42.282 21.1078 42.3249C21.1126 42.3678 21.1086 42.4113 21.0962 42.4526C21.0838 42.494 21.0632 42.5324 21.0356 42.5656C21.008 42.5988 20.974 42.6261 20.9356 42.6459C20.8584 42.6874 20.7679 42.6967 20.6839 42.6718C20.5999 42.6469 20.5291 42.5898 20.487 42.513V42.513L20.4371 42.4244C20.4039 42.369 20.354 42.2804 20.282 42.1751C20.1088 41.9001 19.9144 41.639 19.7005 41.3942C19.6451 41.3278 19.5897 41.2668 19.5288 41.2059C19.4011 41.2519 19.2771 41.3075 19.1577 41.3721C18.8194 41.5477 18.5573 41.8413 18.4211 42.1973C18.3847 42.2705 18.3226 42.3278 18.2466 42.3581C18.1706 42.3883 18.0861 42.3895 18.0093 42.3614C17.9325 42.3333 17.8688 42.2778 17.8303 42.2057C17.7918 42.1335 17.7813 42.0497 17.8008 41.9702C17.994 41.4704 18.3593 41.056 18.831 40.8016L19.0082 40.7075C18.6621 40.4366 18.2483 40.2661 17.8119 40.2145V40.2145Z"
            fill="#C26B6B"/>
      <path
        d="M43.4768 45.1609C43.4772 44.484 43.6675 43.8208 44.0262 43.2467C44.3849 42.6726 44.8974 42.2107 45.5057 41.9135C46.1139 41.6163 46.7932 41.4958 47.4666 41.5657C48.1399 41.6355 48.7801 41.8929 49.3143 42.3086C49.3475 41.9984 49.3863 41.6938 49.4029 41.3781L49.7906 34.5381C49.9004 32.5167 49.5961 30.4941 48.8965 28.5943C48.1968 26.6946 47.1165 24.9579 45.7217 23.4905C44.327 22.0232 42.6472 20.8562 40.7854 20.0611C38.9236 19.266 36.919 18.8596 34.8946 18.8668C32.8701 18.874 30.8685 19.2946 29.0124 20.1028C27.1562 20.9111 25.4848 22.09 24.1005 23.5672C22.7162 25.0444 21.6482 26.7888 20.962 28.6934C20.2758 30.598 19.9859 32.6227 20.11 34.6434L20.5531 41.572C20.5967 42.098 20.6688 42.6212 20.7691 43.1394C21.1924 42.7238 21.7115 42.4188 22.2805 42.2511C22.8495 42.0835 23.451 42.0584 24.032 42.178C24.6131 42.2977 25.1557 42.5584 25.6122 42.9372C26.0687 43.316 26.425 43.8013 26.6497 44.3503C26.8744 44.8993 26.9606 45.4952 26.9007 46.0854C26.8409 46.6755 26.6367 47.2419 26.3063 47.7346C25.9759 48.2273 25.5294 48.6311 25.0062 48.9106C24.4829 49.19 23.8989 49.3364 23.3057 49.3369V49.3369C24.4693 51.0131 25.9577 52.4387 27.6825 53.5289C29.4074 54.6192 31.3336 55.352 33.3469 55.684L34.9365 55.9443L37.1518 55.5012C39.1595 55.0979 41.0654 54.2948 42.7562 53.1397C44.447 51.9846 45.8881 50.5011 46.9937 48.7775C46.0519 48.7516 45.1574 48.3591 44.5006 47.6836C43.8437 47.0082 43.4764 46.1031 43.4768 45.1609V45.1609Z"
        fill="#FFDBCE"/>
      <path
        d="M23.8668 50.0838C22.0945 47.4253 21.046 44.2154 20.769 42.9231C21.3229 41.4461 23.206 39.3231 26.3075 42.6461C29.409 45.9692 25.9899 48.9761 23.8668 50.0838Z"
        fill="#FFDBCE"/>
      <path
        d="M47.0988 41.5438C46.1396 41.5299 45.2142 41.8975 44.5261 42.5659C43.838 43.2343 43.4435 44.1487 43.4296 45.1078C43.4156 46.067 43.7833 46.9925 44.4517 47.6806C45.12 48.3687 46.0344 48.7631 46.9936 48.7771C48.2486 46.8251 49.0423 44.6128 49.3142 42.3081C48.6812 41.8142 47.9017 41.5452 47.0988 41.5438V41.5438Z"
        fill="#FFBBBB"/>
      <path
        d="M26.9001 45.7142C26.8954 45.006 26.6829 44.3149 26.289 43.7264C25.8951 43.1379 25.3371 42.6781 24.6842 42.4038C24.0313 42.1296 23.3123 42.053 22.6163 42.1837C21.9203 42.3143 21.278 42.6464 20.769 43.1388C21.1436 45.3674 22.0102 47.4846 23.3057 49.3363C24.2615 49.329 25.1757 48.9442 25.849 48.2657C26.5223 47.5872 26.9001 46.67 26.9001 45.7142V45.7142Z"
        fill="#FFBBBB"/>
      <path
        d="M29.9077 29.6363C29.4646 31.4086 27.9692 35.4517 26.5846 37.3902C25.6177 36.8287 24.5973 36.3649 23.5384 36.0056C23.5384 37.6671 21.8769 41.2671 20.4923 41.544C19.1077 41.8209 22.4308 36.0056 22.4308 36.0056L20.2154 30.744L23.8154 23.2671L47.9077 26.8671L48.4615 40.9902C48.0849 41.5108 45.8806 39.6056 44.9723 36.2825C43.7538 31.8517 41.8154 30.744 41.8154 30.744C41.8154 30.744 39.3231 34.6209 37.6615 34.6209C36.8308 34.6209 36.2769 33.7902 33.7846 34.8979C32.764 34.4056 31.9009 33.6383 31.2923 32.6825C30.6532 31.7576 30.1843 30.726 29.9077 29.6363V29.6363Z"
        fill="#FFCABC"/>
      <path
        d="M41.8153 41.5441C42.733 41.5441 43.4769 40.5522 43.4769 39.3287C43.4769 38.1051 42.733 37.1133 41.8153 37.1133C40.8977 37.1133 40.1538 38.1051 40.1538 39.3287C40.1538 40.5522 40.8977 41.5441 41.8153 41.5441Z"
        fill="#623D3D"/>
      <path
        d="M27.9692 41.5441C28.8868 41.5441 29.6307 40.5522 29.6307 39.3287C29.6307 38.1051 28.8868 37.1133 27.9692 37.1133C27.0515 37.1133 26.3076 38.1051 26.3076 39.3287C26.3076 40.5522 27.0515 41.5441 27.9692 41.5441Z"
        fill="#623D3D"/>
      <path
        d="M34.6762 45.1442C34.277 45.1649 33.8838 45.041 33.5685 44.7952C32.8208 44.186 33.3747 40.3645 33.9784 38.7029C33.9902 38.669 34.0086 38.6377 34.0326 38.6109C34.0565 38.5841 34.0856 38.5623 34.1181 38.5469C34.1505 38.5314 34.1858 38.5226 34.2217 38.5208C34.2576 38.5191 34.2935 38.5245 34.3273 38.5368C34.3964 38.5619 34.453 38.6129 34.4851 38.6791C34.5172 38.7453 34.5221 38.8214 34.499 38.8912C33.7734 40.9349 33.5741 44.0752 33.9174 44.3854C34.16 44.5281 34.4363 44.6033 34.7178 44.6033C34.9992 44.6033 35.2755 44.5281 35.5181 44.3854C35.5747 44.3477 35.6432 44.3323 35.7106 44.3419C35.7779 44.3515 35.8393 44.3856 35.8831 44.4377C35.927 44.4897 35.9501 44.556 35.9481 44.624C35.9462 44.692 35.9193 44.7569 35.8725 44.8063C35.517 45.0371 35.0999 45.1549 34.6762 45.1442V45.1442Z"
        fill="#F28080"/>
      <mask id="mask2_900_9629" style="mask-type:alpha" maskUnits="userSpaceOnUse" x="31" y="47" width="7" height="4">
        <path
          d="M31.0156 47.0796H37.6618V47.0796C37.6618 48.9149 36.174 50.4027 34.3387 50.4027V50.4027C32.5034 50.4027 31.0156 48.9149 31.0156 47.0796V47.0796Z"
          fill="#D9D9D9"/>
      </mask>
      <g mask="url(#mask2_900_9629)">
        <path fill-rule="evenodd" clip-rule="evenodd"
              d="M31.0156 47.0796H31.6588H32.6922H33.7255H34.7589H35.7966H36.8299H37.6618V47.0986L31.0156 47.7537V47.654V47.5496V47.4499V47.3454V47.2457V47.1413V47.0796ZM37.6618 47.0986V47.203V47.203V47.3027V47.4071L31.0156 48.0575V47.9578V47.8534V47.8534V47.7537L37.6618 47.0986ZM31.0156 48.0575V48.162V48.2617V48.3661L37.6618 47.711V47.6065V47.5068V47.4072L31.0156 48.0575ZM31.0156 48.4658V48.3661L37.6618 47.711V47.8107V47.9151V47.9151V48.0148L31.0156 48.6699V48.5702V48.5702V48.4658ZM37.6618 48.1192V48.0148L31.0156 48.6699V48.7744V48.7744V48.874V48.9785L37.6618 48.3234V48.2189V48.1193V48.1192ZM31.0156 49.0782V48.9785L37.6618 48.3234V48.4231V48.5275V48.5275V48.6272L31.0156 49.2823V49.1779V49.1779V49.0782ZM37.6618 48.7316V48.6272L31.0156 49.2823V49.382V49.382V49.4864V49.5861L37.6618 48.9358V48.8313V48.7316V48.7316ZM31.0156 49.6906V49.5861L37.6618 48.9358V49.0355V49.1352V49.2396L31.0156 49.8947V49.7903V49.6906ZM31.0156 49.8947V49.9944V50.0988V50.0989V50.1985V50.303L37.6618 49.6478V49.5434V49.4437V49.4437V49.3393V49.2396L31.0156 49.8947ZM37.6618 49.6479L31.0156 50.303V50.4027H37.6618V49.6479Z"
              fill="#A34F4F"/>
      </g>
      <path fill-rule="evenodd" clip-rule="evenodd"
            d="M38.4922 35.3077C38.4922 35.3077 42.3691 34.4769 44.3076 36.4154C42.646 32.5274 38.4922 35.3077 38.4922 35.3077Z"
            fill="#623D3D"/>
      <path fill-rule="evenodd" clip-rule="evenodd"
            d="M31.0156 35.3077C31.0156 35.3077 27.1387 34.4769 25.2002 36.4154C26.8617 32.5274 31.0156 35.3077 31.0156 35.3077Z"
            fill="#623D3D"/>
      <path d="M18.8306 67.021V72.5595H19.9383L18.8306 67.021Z" fill="#DCDCDC"/>
      <path d="M52.3386 67.021V72.5595H51.231L52.3386 67.021Z" fill="#DCDCDC"/>
      <path
        d="M22.9848 33.513C22.9848 42.0976 20.3097 41.1727 20.7694 43.4822C19.6617 41.8207 18.7202 37.6668 19.3848 31.0207C20.2986 21.8822 28.5232 18.0053 36.2771 18.0053C39.3804 17.9712 42.4154 18.9162 44.9508 20.7059C47.4863 22.4957 49.393 25.039 50.4002 27.9745C52.0617 33.2361 51.5079 42.0976 48.7386 44.5899C49.6248 42.3745 47.0771 40.9899 46.2463 35.7284C45.9694 33.9727 44.5848 30.7437 40.4309 27.9745C40.4309 32.6822 38.7694 33.6957 37.6617 34.8976L36.2771 32.6822C35.7495 33.7039 34.8613 34.4934 33.7848 34.8976C32.1232 33.513 31.2925 31.2976 29.9079 27.9745C28.5232 32.6822 26.7676 34.8034 26.5848 37.3899C26.1251 36.7419 23.6494 35.2853 22.9848 33.513Z"
        fill="#311B1B"/>
      <path
        d="M22.9848 33.513C22.9848 42.0976 20.3097 41.1727 20.7694 43.4822C19.6617 41.8207 18.7202 37.6668 19.3848 31.0207C20.2986 21.8822 28.5232 18.0053 36.2771 18.0053C39.3804 17.9712 42.4154 18.9162 44.9508 20.7059C47.4863 22.4957 49.393 25.039 50.4002 27.9745C52.0617 33.2361 51.5079 42.0976 48.7386 44.5899C49.6248 42.3745 47.0771 40.9899 46.2463 35.7284C45.9694 33.9727 44.5848 30.7437 40.4309 27.9745C40.4309 32.6822 38.7694 33.6957 37.6617 34.8976L36.2771 32.6822C35.7495 33.7039 34.8613 34.4934 33.7848 34.8976C32.1232 33.513 31.2925 31.2976 29.9079 27.9745C28.5232 32.6822 26.7676 34.8034 26.5848 37.3899C26.1251 36.7419 23.6494 35.2853 22.9848 33.513Z"
        fill="#271515"/>
      <path
        d="M32.9536 17.7284C34.0613 17.7284 35.169 17.1746 35.169 16.0669C35.4459 17.4515 36.5536 17.4515 37.6613 17.7284C36.2767 18.0054 35.9998 18.0054 35.4459 18.8361C34.8921 18.2823 34.6152 18.0054 32.9536 17.7284Z"
        fill="#120606"/>
    </g>
  </g>
  <defs>
    <clipPath id="clip0_900_9629">
      <rect width="72" height="72" rx="36" fill="white"/>
    </clipPath>
    <clipPath id="clip1_900_9629">
      <rect width="49.2923" height="64.2517" fill="white" transform="translate(11.354 14.9536)"/>
    </clipPath>
  </defs>
</svg>
