<svg width="24" height="24" viewBox="0 0 24 24" fill="none" xmlns="http://www.w3.org/2000/svg">
  <rect width="24" height="24" rx="6" fill="#EDFCF2"/>
  <path
    fill-rule="evenodd"
    clip-rule="evenodd"
    d="M6.00002 6.00016C6.00002 5.63197 6.2985 5.3335 6.66669 5.3335H17.3334C17.7015 5.3335 18 5.63197 18 6.00016V10.0002C18 10.3684 17.7015 10.6668 17.3334 10.6668H12.6667V12.0002H17.3334C17.7015 12.0002 18 12.2986 18 12.6668V14.6668H18.6667C19.0349 14.6668 19.3334 14.9653 19.3334 15.3335V18.0002C19.3334 18.3684 19.0349 18.6668 18.6667 18.6668H16C15.6318 18.6668 15.3334 18.3684 15.3334 18.0002V15.3335C15.3334 14.9653 15.6318 14.6668 16 14.6668H16.6667V13.3335H12.6667V14.6668H13.3334C13.7015 14.6668 14 14.9653 14 15.3335V18.0002C14 18.3684 13.7015 18.6668 13.3334 18.6668H10.6667C10.2985 18.6668 10 18.3684 10 18.0002V15.3335C10 14.9653 10.2985 14.6668 10.6667 14.6668H11.3334V13.3335H7.33335V14.6668H8.00002C8.36821 14.6668 8.66669 14.9653 8.66669 15.3335V18.0002C8.66669 18.3684 8.36821 18.6668 8.00002 18.6668H5.33335C4.96516 18.6668 4.66669 18.3684 4.66669 18.0002V15.3335C4.66669 14.9653 4.96516 14.6668 5.33335 14.6668H6.00002V12.6668C6.00002 12.2986 6.2985 12.0002 6.66669 12.0002H11.3334V10.6668H6.66669C6.2985 10.6668 6.00002 10.3684 6.00002 10.0002V6.00016ZM16.6667 9.3335V6.66683H7.33335V9.3335H16.6667ZM6.00002 16.0002V17.3335H7.33335V16.0002H6.00002ZM11.3334 16.0002V17.3335H12.6667V16.0002H11.3334ZM16.6667 16.0002V17.3335H18V16.0002H16.6667ZM8.00002 8.00016C8.00002 7.63197 8.2985 7.3335 8.66669 7.3335H9.33335C9.70154 7.3335 10 7.63197 10 8.00016C10 8.36835 9.70154 8.66683 9.33335 8.66683H8.66669C8.2985 8.66683 8.00002 8.36835 8.00002 8.00016Z"
    fill="#2ED3B7"/>
</svg>
