<svg width="16" height="16" viewBox="-4 -4 24 24" fill="none" xmlns="http://www.w3.org/2000/svg">
  <path
    fill-rule="evenodd"
    clip-rule="evenodd"
    d="M7.99999 0.666748C6.71132 0.666748 5.66666 1.71142 5.66666 3.00008C5.66666 3.54523 5.8536 4.04671 6.16689 4.44391C5.04419 5.0238 4.23133 6.11973 4.04204 7.41796C3.05667 7.69105 2.33332 8.59443 2.33332 9.66675C2.33332 10.2119 2.52027 10.7134 2.83355 11.1106C1.54651 11.7753 0.666656 13.1183 0.666656 14.6667C0.666656 15.0349 0.965133 15.3334 1.33332 15.3334C1.70151 15.3334 1.99999 15.0349 1.99999 14.6667C1.99999 13.194 3.1939 12.0001 4.66666 12.0001C6.1394 12.0001 7.33332 13.194 7.33332 14.6667C7.33332 15.0349 7.6318 15.3334 7.99999 15.3334C8.36818 15.3334 8.66666 15.0349 8.66666 14.6667C8.66666 13.194 9.86058 12.0001 11.3333 12.0001C12.8061 12.0001 14 13.194 14 14.6667C14 15.0349 14.2985 15.3334 14.6667 15.3334C15.0348 15.3334 15.3333 15.0349 15.3333 14.6667C15.3333 13.1183 14.4535 11.7754 13.1664 11.1106C13.4797 10.7134 13.6667 10.2119 13.6667 9.66675C13.6667 8.59443 12.9433 7.69105 11.9579 7.41796C11.7687 6.11973 10.9558 5.0238 9.83309 4.44391C10.1464 4.04671 10.3333 3.54523 10.3333 3.00008C10.3333 1.71142 9.28865 0.666748 7.99999 0.666748ZM10.6094 7.44789C10.3551 6.24011 9.28341 5.33341 7.99999 5.33341C6.71657 5.33341 5.64489 6.24011 5.39057 7.44789C6.32486 7.7525 6.99999 8.63078 6.99999 9.66675C6.99999 10.2119 6.81304 10.7134 6.49976 11.1106C7.10704 11.4242 7.62367 11.8889 7.99999 12.4549C8.37631 11.8889 8.89294 11.4242 9.50022 11.1106C9.18694 10.7134 8.99999 10.2119 8.99999 9.66675C8.99999 8.63078 9.67512 7.7525 10.6094 7.44789Z"
    fill="#5FE9D0"
  />
</svg>
