<svg width="16" height="16" viewBox="-4 -4 24 24" fill="none" xmlns="http://www.w3.org/2000/svg">
  <path
    fill-rule="evenodd"
    clip-rule="evenodd"
    d="M3.66663 1.3335C4.03482 1.3335 4.33329 1.63197 4.33329 2.00016V2.3335H8.33329C8.42358 2.3335 8.51292 2.35183 8.5959 2.3874L10.8035 3.3335H13C13.7363 3.3335 14.3333 3.93044 14.3333 4.66683V10.3335C14.3333 11.0699 13.7363 11.6668 13 11.6668H10.6666C10.5763 11.6668 10.487 11.6485 10.404 11.6129L8.19645 10.6668H4.33329V13.3335H4.99996C5.36815 13.3335 5.66663 13.632 5.66663 14.0002C5.66663 14.3684 5.36815 14.6668 4.99996 14.6668H2.33329C1.9651 14.6668 1.66663 14.3684 1.66663 14.0002C1.66663 13.632 1.9651 13.3335 2.33329 13.3335H2.99996V2.00016C2.99996 1.63197 3.29844 1.3335 3.66663 1.3335ZM4.33329 9.3335V3.66683H8.19645L10.404 4.61293C10.487 4.64849 10.5763 4.66683 10.6666 4.66683H13V10.3335H10.8035L8.5959 9.3874C8.51292 9.35183 8.42358 9.3335 8.33329 9.3335H4.33329Z"
    fill="#5D6B98"/>
</svg>
