<svg width="16" height="16" viewBox="-4 -4 24 24" fill="none" xmlns="http://www.w3.org/2000/svg">
  <path
    fill-rule="evenodd"
    clip-rule="evenodd"
    d="M2.33331 6.33317C2.33331 3.20355 4.87036 0.666504 7.99998 0.666504C11.1296 0.666504 13.6666 3.20355 13.6666 6.33317C13.6666 8.73609 12.2936 10.9713 11.0178 12.5447C10.3697 13.344 9.7232 14.0011 9.23898 14.4585C8.99645 14.6875 8.79355 14.8675 8.65007 14.9911C8.5783 15.053 8.52131 15.1009 8.48157 15.1338C8.4617 15.1503 8.44613 15.163 8.43518 15.1719L8.42224 15.1824L8.41843 15.1855L8.41721 15.1865C8.41721 15.1865 8.41644 15.1871 7.99998 14.6665L7.58319 15.1868L7.58153 15.1855L7.57772 15.1824L7.56478 15.1719C7.55383 15.163 7.53826 15.1503 7.51839 15.1338C7.47865 15.1009 7.42166 15.053 7.34989 14.9911C7.20641 14.8675 7.00351 14.6875 6.76098 14.4585C6.27676 14.0011 5.63025 13.344 4.98214 12.5447C3.7064 10.9713 2.33331 8.73609 2.33331 6.33317ZM5.33331 6.33317C5.33331 4.86041 6.52722 3.6665 7.99998 3.6665C9.47274 3.6665 10.6666 4.86041 10.6666 6.33317C10.6666 7.80593 9.47274 8.99984 7.99998 8.99984C6.52722 8.99984 5.33331 7.80593 5.33331 6.33317Z"
    fill="#F38744"/>
  <path
    d="M7.58319 15.1868C7.82667 15.3816 8.17296 15.3819 8.41644 15.1871L7.99998 14.6665C7.58352 15.1871 7.58319 15.1868 7.58319 15.1868Z"
    fill="#F38744"/>
</svg>
