<svg width="16" height="16" viewBox="-4 -4 24 24" fill="none" xmlns="http://www.w3.org/2000/svg">
<path fill-rule="evenodd" clip-rule="evenodd" d="M8.00293 1.66675C8.37112 1.66675 8.6696 1.96522 8.6696 2.33341V3.70059C9.42506 3.77694 10.1402 3.97872 10.7946 4.26661L11.3331 3.5152C11.5476 3.21593 11.9641 3.1472 12.2634 3.36169C12.5626 3.57617 12.6313 3.99265 12.4169 4.29191L11.9706 4.91452C12.2207 5.08256 12.4565 5.2624 12.6763 5.4507C13.8348 6.44305 14.6667 7.77811 14.6667 9.00009C14.6667 10.2221 13.8348 11.5571 12.6763 12.5495C11.4917 13.5642 9.84263 14.3334 8 14.3334C6.15723 14.3334 4.50814 13.5636 3.32359 12.5487C2.16527 11.5562 1.33333 10.2212 1.33333 9.00009C1.33333 7.779 2.16527 6.44395 3.32359 5.45148C3.62265 5.19524 3.95133 4.95462 4.30525 4.73807L3.87935 4.1438C3.66487 3.84453 3.73361 3.42806 4.03288 3.21358C4.33215 2.9991 4.74863 3.06784 4.9631 3.36711L5.516 4.13858C6.08563 3.9183 6.6965 3.76415 7.33626 3.70002V2.33341C7.33626 1.96522 7.63474 1.66675 8.00293 1.66675ZM8 5.00009C6.52906 5.00009 5.17815 5.61828 4.19112 6.46398C3.17787 7.33215 2.66666 8.33045 2.66666 9.00009C2.66666 9.66973 3.17787 10.668 4.19112 11.5362C5.17815 12.3819 6.52906 13.0001 8 13.0001C9.47106 13.0001 10.822 12.3823 11.8089 11.5369C12.822 10.669 13.3333 9.67075 13.3333 9.00009C13.3333 8.3294 12.822 7.33113 11.8089 6.46331C10.822 5.6179 9.47107 5.00009 8 5.00009ZM5.33333 9.00009C5.33333 7.52733 6.52724 6.33342 8 6.33342C9.47275 6.33342 10.6667 7.52733 10.6667 9.00009C10.6667 10.4728 9.47275 11.6668 8 11.6668C6.52724 11.6668 5.33333 10.4728 5.33333 9.00009ZM8 7.66675C7.26362 7.66675 6.66666 8.26371 6.66666 9.00009C6.66666 9.73646 7.26362 10.3334 8 10.3334C8.73637 10.3334 9.33333 9.73646 9.33333 9.00009C9.33333 8.26371 8.73637 7.66675 8 7.66675Z" fill="#5FE9D0"/>
</svg>
