<svg width="16" height="16" viewBox="-4 -4 24 24" fill="none" xmlns="http://www.w3.org/2000/svg">
  <g clip-path="url(#clip0_900_9717)">
    <path
      d="M0.907388 9.51073C1.08879 9.07354 1.37268 8.68433 1.73608 8.37458C2.09949 8.06482 2.53221 7.84323 2.99923 7.72772C3.46626 7.6122 3.95448 7.60602 4.4244 7.70967C4.89432 7.81331 5.33274 8.02387 5.70419 8.32432C6.07565 8.62477 6.36971 9.00666 6.56258 9.43911C6.75546 9.87156 6.84174 10.3424 6.81443 10.8136C6.78713 11.2848 6.64702 11.743 6.40542 12.1513C6.16383 12.5596 5.82754 12.9064 5.42376 13.1637C5.39821 13.1801 5.37762 13.2029 5.36415 13.2297C5.35069 13.2565 5.34484 13.2864 5.34723 13.3162C5.34962 13.346 5.36016 13.3746 5.37774 13.3991C5.39531 13.4235 5.41928 13.4428 5.44713 13.4551C5.7073 13.5685 5.95473 13.7069 6.18623 13.8692C6.70976 14.2333 7.14196 14.7119 7.44567 15.2675C7.4866 15.3435 7.50682 15.4286 7.50439 15.5145C7.50195 15.6003 7.47694 15.6842 7.43178 15.7578C7.38661 15.8315 7.32282 15.8924 7.24656 15.9349C7.17031 15.9773 7.08417 15.9997 6.99648 16H0.508104C0.420411 15.9997 0.334273 15.9773 0.258018 15.9349C0.181762 15.8924 0.117969 15.8315 0.0728038 15.7578C0.0276389 15.6842 0.00263058 15.6003 0.000196441 15.5145C-0.0022377 15.4286 0.0179847 15.3435 0.0589087 15.2675C0.363311 14.713 0.794327 14.2348 1.31835 13.8702C1.54985 13.7079 1.79622 13.5685 2.05746 13.4571C2.0853 13.4449 2.10927 13.4256 2.12685 13.4011C2.14442 13.3767 2.15496 13.3481 2.15735 13.3183C2.15974 13.2885 2.15389 13.2586 2.14043 13.2318C2.12696 13.2049 2.10637 13.1822 2.08082 13.1658C1.48192 12.7853 1.03712 12.2122 0.822946 11.5451C0.608776 10.878 0.638636 10.1586 0.907388 9.51073V9.51073ZM12.2477 7.63272C12.9102 7.63195 13.5552 7.84125 14.0863 8.22936C14.6174 8.61747 15.006 9.16353 15.1941 9.78594C15.3822 10.4084 15.3596 11.0737 15.1298 11.6825C14.9 12.2914 14.4753 12.811 13.9192 13.1637C13.8936 13.1801 13.873 13.2029 13.8596 13.2297C13.8461 13.2565 13.8403 13.2864 13.8426 13.3162C13.845 13.346 13.8556 13.3746 13.8732 13.3991C13.8907 13.4235 13.9147 13.4428 13.9425 13.4551C14.2027 13.5685 14.4501 13.7069 14.6816 13.8692C15.2052 14.2333 15.6374 14.7119 15.9411 15.2675C15.982 15.3435 16.0022 15.4286 15.9998 15.5145C15.9974 15.6003 15.9724 15.6842 15.9272 15.7578C15.882 15.8315 15.8182 15.8924 15.742 15.9349C15.6657 15.9773 15.5796 15.9997 15.4919 16H9.00352C8.91583 15.9997 8.82969 15.9773 8.75344 15.9349C8.67718 15.8924 8.61339 15.8315 8.56822 15.7578C8.52306 15.6842 8.49805 15.6003 8.49561 15.5145C8.49318 15.4286 8.5134 15.3435 8.55433 15.2675C8.85859 14.7126 9.28962 14.234 9.81377 13.8692C10.0453 13.7069 10.2916 13.5674 10.5529 13.4561C10.5807 13.4439 10.6047 13.4245 10.6223 13.4001C10.6398 13.3757 10.6504 13.347 10.6528 13.3172C10.6552 13.2874 10.6493 13.2575 10.6358 13.2307C10.6224 13.2039 10.6018 13.1811 10.5762 13.1648C10.0196 12.8122 9.59441 12.2925 9.3643 11.6835C9.13419 11.0745 9.11151 10.4088 9.29966 9.78609C9.48781 9.16338 9.87667 8.61708 10.4081 8.22892C10.9395 7.84076 11.5849 7.6316 12.2477 7.63272V7.63272ZM2.29639 10.0029L2.24648 10.0122C2.22216 10.0201 2.19997 10.0333 2.18158 10.0508C2.16319 10.0682 2.14908 10.0896 2.14029 10.1131C2.05777 10.3394 2.02593 10.5803 2.04694 10.8196C2.06796 11.059 2.14133 11.2911 2.26207 11.5001C2.38281 11.7092 2.54808 11.8904 2.74665 12.0313C2.94523 12.1722 3.17244 12.2695 3.41284 12.3167C3.65324 12.3639 3.90119 12.3598 4.13984 12.3047C4.37848 12.2496 4.60222 12.1448 4.79583 11.9974C4.98945 11.8501 5.1484 11.6636 5.26189 11.4506C5.37537 11.2377 5.44072 11.0033 5.4535 10.7634C5.45473 10.7383 5.45015 10.7133 5.44011 10.6902C5.43008 10.6671 5.41483 10.6465 5.39553 10.63C5.37622 10.6135 5.35335 10.6015 5.32864 10.5949C5.30392 10.5882 5.27799 10.5872 5.25279 10.5918C4.26123 10.7767 3.23517 10.5751 2.39302 10.0299C2.37153 10.0164 2.34719 10.0077 2.32182 10.0047C2.29644 10.0016 2.27069 10.0042 2.24648 10.0122L2.29639 10.0029ZM10.7918 10.0029L10.7419 10.0122C10.7176 10.0201 10.6954 10.0333 10.677 10.0508C10.6586 10.0682 10.6445 10.0896 10.6357 10.1131C10.5532 10.3394 10.5213 10.5803 10.5424 10.8196C10.5634 11.059 10.6367 11.2911 10.7575 11.5001C10.8782 11.7092 11.0435 11.8904 11.2421 12.0313C11.4406 12.1722 11.6679 12.2695 11.9083 12.3167C12.1487 12.3639 12.3966 12.3598 12.6353 12.3047C12.8739 12.2496 13.0976 12.1448 13.2912 11.9974C13.4849 11.8501 13.6438 11.6636 13.7573 11.4506C13.8708 11.2377 13.9361 11.0033 13.9489 10.7634C13.9501 10.7383 13.9456 10.7133 13.9355 10.6902C13.9255 10.6671 13.9102 10.6465 13.8909 10.63C13.8716 10.6135 13.8488 10.6015 13.8241 10.5949C13.7993 10.5882 13.7734 10.5872 13.7482 10.5918C12.7567 10.7767 11.7306 10.5751 10.8884 10.0299C10.8669 10.0164 10.8426 10.0077 10.8172 10.0047C10.7919 10.0016 10.7661 10.0042 10.7419 10.0122L10.7918 10.0029ZM8.0308 2.14921e-06C8.69332 -0.000773709 9.33831 0.208532 9.86938 0.596638C10.4004 0.984744 10.7891 1.53081 10.9772 2.15322C11.1652 2.77564 11.1427 3.44098 10.9129 4.04981C10.6831 4.65863 10.2584 5.17826 9.70227 5.53102C9.67675 5.54744 9.65623 5.57029 9.64284 5.59718C9.62946 5.62406 9.62372 5.65398 9.62621 5.68379C9.62871 5.7136 9.63936 5.74219 9.65704 5.76658C9.67473 5.79096 9.69879 5.81022 9.72669 5.82234C10.0814 5.97633 10.4127 6.17818 10.7111 6.42164C10.7558 6.45805 10.7902 6.50508 10.8111 6.55824C10.8319 6.6114 10.8385 6.66891 10.8302 6.72528C10.8219 6.78165 10.799 6.83498 10.7636 6.88019C10.7283 6.9254 10.6817 6.96096 10.6283 6.98348C9.98482 7.25711 9.42363 7.68767 8.99821 8.2341C8.96656 8.27545 8.92551 8.30901 8.87833 8.33213C8.83114 8.35524 8.77911 8.36728 8.72636 8.36728H7.27577C7.22301 8.36728 7.17098 8.35524 7.12379 8.33213C7.07661 8.30901 7.03556 8.27545 7.00391 8.2341C6.58724 7.69712 6.0395 7.27136 5.41102 6.99597C5.35857 6.97305 5.31291 6.93748 5.27829 6.89259C5.24367 6.84769 5.22123 6.79493 5.21306 6.73924C5.2049 6.68354 5.21127 6.62673 5.23159 6.5741C5.25191 6.52147 5.28551 6.47475 5.32925 6.43829C5.63324 6.18715 5.97222 5.97975 6.33596 5.82234C6.3638 5.81012 6.38777 5.79077 6.40535 5.76633C6.42293 5.7419 6.43347 5.71328 6.43586 5.68347C6.43825 5.65367 6.4324 5.62379 6.41893 5.59696C6.40547 5.57013 6.38488 5.54736 6.35932 5.53102C5.80317 5.17826 5.37846 4.65863 5.14867 4.04981C4.91888 3.44098 4.89634 2.77564 5.08444 2.15322C5.27253 1.53081 5.66115 0.984744 6.19222 0.596638C6.72328 0.208532 7.36827 -0.000773709 8.0308 2.14921e-06V2.14921e-06ZM6.57596 2.37222L6.52498 2.38055C6.50055 2.38854 6.4783 2.40188 6.4599 2.41954C6.4415 2.43721 6.42744 2.45874 6.41879 2.48251C6.33627 2.70871 6.30443 2.94967 6.32545 3.18901C6.34646 3.42834 6.41983 3.66044 6.54057 3.86951C6.66131 4.07858 6.82659 4.25972 7.02516 4.40062C7.22373 4.54152 7.45094 4.63888 7.69134 4.68606C7.93175 4.73324 8.1797 4.72915 8.41834 4.67406C8.65698 4.61897 8.88072 4.51418 9.07434 4.36681C9.26795 4.21943 9.42691 4.03294 9.54039 3.82C9.65388 3.60706 9.71923 3.37268 9.732 3.13279C9.7332 3.10781 9.72864 3.0829 9.71866 3.05988C9.70868 3.03687 9.69354 3.01636 9.67436 2.99987C9.65518 2.98337 9.63246 2.97133 9.60787 2.96462C9.58329 2.95791 9.55748 2.95671 9.53236 2.96112C8.54046 3.14629 7.51396 2.9447 6.67153 2.39927C6.65012 2.38554 6.62582 2.37672 6.60044 2.37348C6.57507 2.37024 6.54927 2.37265 6.52498 2.38055L6.57596 2.37222Z"
      fill="#F38744"/>
  </g>
  <defs>
    <clipPath id="clip0_900_9717">
      <rect width="16" height="16" fill="white"/>
    </clipPath>
  </defs>
</svg>
