<svg width="16" height="16" viewBox="-4 -4 24 24" fill="none" xmlns="http://www.w3.org/2000/svg">
<path fill-rule="evenodd" clip-rule="evenodd" d="M3.35087 0.666748C3.71906 0.666748 4.01754 0.965225 4.01754 1.33341V1.66675H6.64914V1.33341C6.64914 0.965225 6.94761 0.666748 7.3158 0.666748C7.68399 0.666748 7.98247 0.965225 7.98247 1.33341V1.66675H9.33334C9.70153 1.66675 10 1.96522 10 2.33341V7.00008C10 8.83294 8.65593 10.9532 6.05778 11.2879C6.34882 12.832 7.70468 14.0001 9.33334 14.0001C11.1743 14.0001 12.6667 12.5077 12.6667 10.6667V8.21961C11.8899 7.94505 11.3333 7.20423 11.3333 6.33341C11.3333 5.22885 12.2288 4.33341 13.3333 4.33341C14.4379 4.33341 15.3333 5.22884 15.3333 6.33341C15.3333 7.20423 14.7768 7.94505 14 8.21961V10.6667C14 13.2441 11.9107 15.3334 9.33334 15.3334C6.97076 15.3334 5.01824 13.5777 4.70926 11.2999C2.04537 11.0075 0.666672 8.8564 0.666672 7.00008V2.33396C0.666672 1.96577 0.965149 1.66675 1.33334 1.66675H2.6842V1.33341C2.6842 0.965225 2.98268 0.666748 3.35087 0.666748ZM8.66667 7.00008C8.66667 8.33721 7.59432 10.0001 5.33334 10.0001C3.07236 10.0001 2.00001 8.33721 2.00001 7.00008V3.00008H2.6842V3.33341C2.6842 3.7016 2.98268 4.00008 3.35087 4.00008C3.71906 4.00008 4.01754 3.7016 4.01754 3.33341V3.00008H6.64914V3.33341C6.64914 3.7016 6.94761 4.00008 7.3158 4.00008C7.68399 4.00008 7.98247 3.7016 7.98247 3.33341V3.00008H8.66667V7.00008Z" fill="#F38744"/>
</svg>
