<svg width="16" height="16" viewBox="-4 -4 24 24" fill="none" xmlns="http://www.w3.org/2000/svg">
  <path
    d="M14.3891 8.82838H11.7222V5.58901L8.3381 3.35954V1.94311C9.30342 2.10674 11.0541 2.56184 11.8313 1.98658C11.8313 1.38319 11.8558 0.373282 11.8313 0C10.6805 0.455097 7.66728 0 7.66728 0V3.35954L4.28319 5.58901V8.82838H1.61628C1.27542 8.82838 1 9.08661 1 9.4062V16H5.69027V15.3301C5.69027 14.1873 6.57924 13.1595 7.79272 13.0598C9.16162 12.9473 10.3096 13.9572 10.3096 15.2176V16H14.9999V9.4062C15.0054 9.08917 14.73 8.82838 14.3891 8.82838V8.82838ZM8.00541 8.68265C7.68559 8.68265 7.37295 8.59372 7.10703 8.42713C6.8411 8.26053 6.63384 8.02375 6.51145 7.74671C6.38906 7.46967 6.35704 7.16482 6.41943 6.87072C6.48183 6.57662 6.63584 6.30647 6.86199 6.09443C7.08813 5.8824 7.37627 5.738 7.68994 5.6795C8.00362 5.621 8.32876 5.65102 8.62423 5.76578C8.91971 5.88053 9.17226 6.07486 9.34994 6.32418C9.52763 6.57351 9.62247 6.86664 9.62247 7.16651C9.62247 8.00256 8.89711 8.68265 8.00541 8.68265Z"
    fill="#16B364"/>
</svg>
