<svg width="16" height="16" viewBox="-4 -4 24 24" fill="none" xmlns="http://www.w3.org/2000/svg">
<path d="M7.83256 1.0209C8.18916 1.11254 8.40396 1.47592 8.31232 1.83252C7.96764 3.17376 7.96764 4.12289 8.25582 4.66716C8.30707 4.76398 8.36766 4.85965 8.45175 4.97707L8.77559 5.40382C8.84801 5.49889 8.90591 5.578 8.95968 5.65663C9.64396 6.65723 9.49946 7.58963 8.2883 8.61299C8.21885 8.67167 8.1486 8.72728 8.07757 8.77985C6.98918 9.58527 6.00694 9.6356 4.54033 9.26619L3.84662 9.08454L3.65665 9.03968L3.56195 9.02114L3.48394 9.00984L3.38153 9.00304L3.34749 9.0027C2.66059 9.0027 2.00748 9.93484 2.00748 11.3333C2.00748 12.4234 2.20328 13.3146 2.58506 14.0137C2.76152 14.3369 2.6426 14.7419 2.31945 14.9184C1.9963 15.0948 1.59129 14.9759 1.41483 14.6528C0.917774 13.7425 0.674149 12.6336 0.674149 11.3333C0.674149 9.27908 1.802 7.66936 3.34749 7.66936L3.46615 7.67083L3.575 7.67639L3.62871 7.68123L3.74065 7.6961C3.7602 7.69923 3.78034 7.70271 3.80125 7.70657L3.93765 7.73461L4.19806 7.79766L4.69932 7.92989C5.91458 8.25531 6.5618 8.24282 7.28444 7.70807C7.33231 7.67264 7.38008 7.63482 7.42776 7.59453C8.12467 7.00568 8.15096 6.83607 7.8591 6.40929L7.77021 6.28518L7.5394 5.98394C7.33089 5.71214 7.19728 5.51739 7.07745 5.29105C6.60148 4.3921 6.60148 3.1329 7.02094 1.50066C7.11258 1.14406 7.47596 0.929261 7.83256 1.0209ZM10.1688 1.02305C10.5242 1.11918 10.7344 1.48524 10.6383 1.84065C10.2244 3.37087 10.3078 4.22899 10.6987 4.4955C10.8212 4.57903 10.8491 4.59215 10.9127 4.57298L10.9776 4.54954L11.2036 4.44856C11.9666 4.10366 12.6404 4.0813 13.6595 4.55115C15.8525 5.56229 15.7817 8.90921 14.2454 11.119C12.847 13.1304 10.2102 14.6151 7.91988 14.3281C6.79541 14.1871 5.91061 13.5584 5.16849 12.5858L5.01009 12.3715L4.86442 12.1587L4.71547 11.9243L4.54724 11.6454L4.41466 11.4206L4.40369 11.4414C4.37998 11.493 4.36433 11.5708 4.34913 11.688L4.32779 11.8752C4.26515 12.4724 4.45343 13.1825 4.91625 14.0069C5.09649 14.328 4.98234 14.7343 4.66128 14.9146C4.34022 15.0948 3.93384 14.9807 3.7536 14.6596C3.16568 13.6123 2.90718 12.6374 3.00173 11.7361C3.07341 11.0527 3.31312 10.5622 3.72017 10.274C4.02692 10.0567 4.2961 10.0066 4.67203 10.0066C4.98259 10.0066 5.13509 10.1196 5.30266 10.3404L5.38686 10.4577L5.47539 10.5961L5.83992 11.2073L5.97088 11.414C6.05456 11.5416 6.13414 11.6534 6.22846 11.777C6.77326 12.4909 7.37068 12.9155 8.0857 13.0051C9.82973 13.2237 12.0129 11.9943 13.1507 10.3579C14.2812 8.7317 14.332 6.32948 13.1012 5.76198C12.4942 5.48209 12.2164 5.4713 11.8361 5.62753L11.5294 5.76409L11.4051 5.81342C10.9142 5.99258 10.4499 5.93962 9.9476 5.59717C8.93966 4.91001 8.80413 3.51506 9.35119 1.49252C9.44732 1.13711 9.81338 0.926914 10.1688 1.02305ZM12.0933 8.79777C12.4424 8.9147 12.6306 9.29252 12.5137 9.64165C12.2774 10.3471 11.867 10.9074 11.287 11.3129C10.7251 11.7058 10.0303 11.9314 9.21348 11.9978C8.8465 12.0276 8.52483 11.7543 8.49502 11.3873C8.4652 11.0203 8.73853 10.6986 9.10551 10.6688C9.69918 10.6206 10.1681 10.4683 10.5229 10.2202C10.865 9.98101 11.1025 9.65688 11.2494 9.21821C11.3663 8.86908 11.7442 8.68084 12.0933 8.79777Z" fill="#5FE9D0"/>
</svg>
