<svg width="16" height="16" viewBox="-4 -4 24 24" fill="none" xmlns="http://www.w3.org/2000/svg">
  <path
    fill-rule="evenodd"
    clip-rule="evenodd"
    d="M0.666626 2.33317C0.666626 1.4127 1.41282 0.666504 2.33329 0.666504H13.6666C14.5871 0.666504 15.3333 1.4127 15.3333 2.33317V13.6665C15.3333 14.587 14.5871 15.3332 13.6666 15.3332H2.33329C1.41282 15.3332 0.666626 14.587 0.666626 13.6665V2.33317ZM7.99996 3.33317C8.36815 3.33317 8.66663 3.63165 8.66663 3.99984V5.33317C8.66663 5.70136 8.36815 5.99984 7.99996 5.99984C7.63177 5.99984 7.33329 5.70136 7.33329 5.33317V3.99984C7.33329 3.63165 7.63177 3.33317 7.99996 3.33317ZM5.99091 4.10954C6.05144 3.74636 5.80609 3.40288 5.44291 3.34235C5.07973 3.28182 4.73625 3.52716 4.67572 3.89034L3.34239 11.8903C3.28186 12.2535 3.5272 12.597 3.89038 12.6575C4.25356 12.7181 4.59705 12.4727 4.65758 12.1095L5.99091 4.10954ZM10.3423 4.10954C10.2818 3.74636 10.5272 3.40288 10.8903 3.34235C11.2535 3.28182 11.597 3.52716 11.6575 3.89034L12.9909 11.8903C13.0514 12.2535 12.806 12.597 12.4429 12.6575C12.0797 12.7181 11.7362 12.4727 11.6757 12.1095L10.3423 4.10954ZM8.66663 7.33317C8.66663 6.96498 8.36815 6.6665 7.99996 6.6665C7.63177 6.6665 7.33329 6.96498 7.33329 7.33317V8.6665C7.33329 9.03469 7.63177 9.33317 7.99996 9.33317C8.36815 9.33317 8.66663 9.03469 8.66663 8.6665V7.33317ZM7.99996 9.99984C8.36815 9.99984 8.66663 10.2983 8.66663 10.6665V11.9998C8.66663 12.368 8.36815 12.6665 7.99996 12.6665C7.63177 12.6665 7.33329 12.368 7.33329 11.9998V10.6665C7.33329 10.2983 7.63177 9.99984 7.99996 9.99984Z"
    fill="#F7B27A"/>
</svg>
